<?xml version="1.0" encoding="UTF-8"?>
<svg xmlns="http://www.w3.org/2000/svg" xmlns:xlink="http://www.w3.org/1999/xlink" width="1920" height="1080" viewBox="0 0 1920 1080">
<defs>
<g>
<g id="glyph-0-0">
<path d="M 0.875 -1.003906 L 0.875 -0.445312 L 1.035156 -0.445312 C 1.140625 -0.445312 1.21875 -0.425781 1.265625 -0.382812 C 1.308594 -0.339844 1.332031 -0.289062 1.332031 -0.222656 C 1.332031 -0.15625 1.308594 -0.101562 1.265625 -0.0625 C 1.21875 -0.0195312 1.140625 0 1.035156 0 L 0.359375 0 C 0.253906 0 0.175781 -0.0195312 0.132812 -0.0625 C 0.0859375 -0.101562 0.0625 -0.15625 0.0625 -0.222656 C 0.0625 -0.289062 0.0859375 -0.339844 0.132812 -0.382812 C 0.179688 -0.425781 0.253906 -0.445312 0.359375 -0.445312 L 0.429688 -0.445312 L 0.429688 -2.183594 L 0.359375 -2.183594 C 0.253906 -2.183594 0.175781 -2.207031 0.132812 -2.246094 C 0.0859375 -2.289062 0.0625 -2.34375 0.0625 -2.410156 C 0.0625 -2.476562 0.0859375 -2.527344 0.132812 -2.570312 C 0.175781 -2.613281 0.253906 -2.632812 0.359375 -2.632812 L 1.367188 -2.628906 C 1.679688 -2.628906 1.925781 -2.550781 2.097656 -2.398438 C 2.269531 -2.242188 2.355469 -2.050781 2.355469 -1.828125 C 2.355469 -1.691406 2.316406 -1.5625 2.234375 -1.449219 C 2.152344 -1.335938 2.03125 -1.234375 1.867188 -1.148438 C 1.960938 -1.066406 2.0625 -0.960938 2.171875 -0.832031 C 2.238281 -0.75 2.328125 -0.621094 2.4375 -0.445312 C 2.550781 -0.445312 2.625 -0.433594 2.664062 -0.410156 C 2.726562 -0.367188 2.761719 -0.300781 2.761719 -0.222656 C 2.761719 -0.15625 2.738281 -0.101562 2.691406 -0.0625 C 2.648438 -0.0195312 2.574219 0 2.464844 0 L 2.210938 0 C 1.851562 -0.558594 1.550781 -0.890625 1.316406 -1.003906 Z M 0.875 -1.449219 L 1.222656 -1.449219 C 1.351562 -1.449219 1.464844 -1.46875 1.566406 -1.507812 C 1.703125 -1.558594 1.792969 -1.617188 1.839844 -1.671875 C 1.886719 -1.730469 1.910156 -1.789062 1.910156 -1.84375 C 1.910156 -1.929688 1.867188 -2.007812 1.777344 -2.078125 C 1.6875 -2.148438 1.558594 -2.183594 1.382812 -2.183594 L 0.875 -2.183594 Z "/>
</g>
</g>
</defs>
<g fill="rgb(94.117647%, 95.686275%, 97.254902%)" fill-opacity="1">
<use xlink:href="#glyph-0-0" x="30" y="23.700195"/>
</g>
</svg>
