<?xml version="1.0" encoding="UTF-8"?>
<svg xmlns="http://www.w3.org/2000/svg" xmlns:xlink="http://www.w3.org/1999/xlink" width="1920" height="1080" viewBox="0 0 1920 1080">
<defs>
<g>
<g id="glyph-0-0">
<path d="M 0.140625 -0.628906 L 0.433594 -0.667969 C 0.464844 -0.503906 0.523438 -0.382812 0.605469 -0.308594 C 0.6875 -0.234375 0.785156 -0.199219 0.898438 -0.199219 C 1.039062 -0.199219 1.152344 -0.246094 1.25 -0.34375 C 1.34375 -0.4375 1.390625 -0.558594 1.390625 -0.699219 C 1.390625 -0.832031 1.347656 -0.945312 1.257812 -1.03125 C 1.171875 -1.117188 1.058594 -1.160156 0.925781 -1.160156 C 0.871094 -1.160156 0.800781 -1.152344 0.71875 -1.128906 L 0.75 -1.386719 C 0.769531 -1.382812 0.785156 -1.382812 0.796875 -1.382812 C 0.921875 -1.382812 1.035156 -1.414062 1.132812 -1.480469 C 1.234375 -1.546875 1.285156 -1.644531 1.285156 -1.78125 C 1.285156 -1.890625 1.246094 -1.976562 1.175781 -2.050781 C 1.101562 -2.121094 1.007812 -2.15625 0.894531 -2.15625 C 0.78125 -2.15625 0.683594 -2.117188 0.609375 -2.046875 C 0.53125 -1.976562 0.484375 -1.867188 0.460938 -1.726562 L 0.167969 -1.777344 C 0.203125 -1.972656 0.285156 -2.125 0.414062 -2.234375 C 0.539062 -2.34375 0.699219 -2.394531 0.886719 -2.394531 C 1.015625 -2.394531 1.136719 -2.367188 1.246094 -2.3125 C 1.355469 -2.257812 1.441406 -2.179688 1.5 -2.082031 C 1.558594 -1.984375 1.585938 -1.882812 1.585938 -1.777344 C 1.585938 -1.671875 1.558594 -1.578125 1.503906 -1.492188 C 1.449219 -1.410156 1.363281 -1.34375 1.257812 -1.292969 C 1.398438 -1.261719 1.507812 -1.191406 1.585938 -1.089844 C 1.664062 -0.988281 1.703125 -0.859375 1.703125 -0.703125 C 1.703125 -0.496094 1.625 -0.320312 1.472656 -0.175781 C 1.320312 -0.03125 1.128906 0.0429688 0.898438 0.0429688 C 0.6875 0.0429688 0.515625 -0.0195312 0.375 -0.144531 C 0.238281 -0.269531 0.160156 -0.429688 0.140625 -0.628906 Z "/>
</g>
<g id="glyph-0-1">
<path d="M 1.242188 0 L 0.949219 0 L 0.949219 -1.867188 C 0.878906 -1.800781 0.785156 -1.730469 0.671875 -1.664062 C 0.558594 -1.597656 0.453125 -1.546875 0.363281 -1.511719 L 0.363281 -1.796875 C 0.527344 -1.875 0.671875 -1.96875 0.792969 -2.078125 C 0.914062 -2.1875 1.003906 -2.292969 1.054688 -2.394531 L 1.242188 -2.394531 Z "/>
</g>
<g id="glyph-0-2">
<path d="M 0.195312 -1.8125 C 0.195312 -1.984375 0.238281 -2.128906 0.320312 -2.246094 C 0.40625 -2.367188 0.53125 -2.425781 0.695312 -2.425781 C 0.84375 -2.425781 0.96875 -2.375 1.066406 -2.265625 C 1.164062 -2.160156 1.214844 -2.003906 1.214844 -1.796875 C 1.214844 -1.59375 1.164062 -1.4375 1.066406 -1.328125 C 0.964844 -1.21875 0.84375 -1.164062 0.699219 -1.164062 C 0.554688 -1.164062 0.433594 -1.21875 0.335938 -1.328125 C 0.242188 -1.433594 0.195312 -1.597656 0.195312 -1.8125 Z M 0.703125 -2.226562 C 0.628906 -2.226562 0.570312 -2.191406 0.523438 -2.128906 C 0.472656 -2.066406 0.449219 -1.953125 0.449219 -1.785156 C 0.449219 -1.632812 0.472656 -1.523438 0.523438 -1.460938 C 0.570312 -1.398438 0.632812 -1.367188 0.703125 -1.367188 C 0.777344 -1.367188 0.835938 -1.398438 0.886719 -1.460938 C 0.933594 -1.523438 0.957031 -1.640625 0.957031 -1.804688 C 0.957031 -1.960938 0.933594 -2.070312 0.886719 -2.132812 C 0.835938 -2.195312 0.777344 -2.226562 0.703125 -2.226562 Z M 0.703125 0.0859375 L 2.011719 -2.425781 L 2.246094 -2.425781 L 0.945312 0.0859375 Z M 1.738281 -0.558594 C 1.738281 -0.730469 1.78125 -0.875 1.863281 -0.996094 C 1.949219 -1.113281 2.074219 -1.171875 2.238281 -1.171875 C 2.390625 -1.171875 2.511719 -1.121094 2.609375 -1.011719 C 2.707031 -0.90625 2.757812 -0.75 2.757812 -0.542969 C 2.757812 -0.339844 2.707031 -0.183594 2.609375 -0.0742188 C 2.511719 0.0351562 2.386719 0.0859375 2.242188 0.0859375 C 2.097656 0.0859375 1.976562 0.0351562 1.878906 -0.0742188 C 1.785156 -0.183594 1.738281 -0.34375 1.738281 -0.558594 Z M 2.246094 -0.972656 C 2.171875 -0.972656 2.113281 -0.941406 2.0625 -0.878906 C 2.015625 -0.816406 1.992188 -0.699219 1.992188 -0.53125 C 1.992188 -0.378906 2.015625 -0.269531 2.066406 -0.207031 C 2.113281 -0.144531 2.175781 -0.113281 2.246094 -0.113281 C 2.320312 -0.113281 2.382812 -0.144531 2.429688 -0.207031 C 2.480469 -0.269531 2.503906 -0.386719 2.503906 -0.554688 C 2.503906 -0.707031 2.480469 -0.816406 2.429688 -0.878906 C 2.382812 -0.941406 2.320312 -0.972656 2.246094 -0.972656 Z "/>
</g>
</g>
</defs>
<g fill="rgb(94.117647%, 95.686275%, 97.254902%)" fill-opacity="1">
<use xlink:href="#glyph-0-0" x="30" y="23.017578"/>
<use xlink:href="#glyph-0-1" x="32" y="23.017578"/>
<use xlink:href="#glyph-0-2" x="34" y="23.017578"/>
</g>
</svg>
