<?xml version="1.0" encoding="UTF-8"?>
<svg xmlns="http://www.w3.org/2000/svg" xmlns:xlink="http://www.w3.org/1999/xlink" width="1920" height="1080" viewBox="0 0 1920 1080">
<defs>
<g>
<g id="glyph-0-0">
<path d="M 0.425781 -0.445312 L 0.425781 -2.183594 L 0.355469 -2.183594 C 0.25 -2.183594 0.171875 -2.207031 0.125 -2.246094 C 0.0820312 -2.289062 0.0585938 -2.34375 0.0585938 -2.410156 C 0.0585938 -2.476562 0.0820312 -2.527344 0.125 -2.570312 C 0.171875 -2.613281 0.25 -2.632812 0.355469 -2.632812 L 1.472656 -2.632812 C 1.738281 -2.632812 1.953125 -2.558594 2.113281 -2.410156 C 2.277344 -2.261719 2.355469 -2.085938 2.355469 -1.882812 C 2.355469 -1.785156 2.339844 -1.695312 2.300781 -1.609375 C 2.261719 -1.523438 2.207031 -1.445312 2.128906 -1.371094 C 2.269531 -1.289062 2.375 -1.191406 2.445312 -1.078125 C 2.515625 -0.964844 2.550781 -0.839844 2.550781 -0.695312 C 2.550781 -0.582031 2.523438 -0.480469 2.472656 -0.382812 C 2.4375 -0.308594 2.390625 -0.25 2.335938 -0.207031 C 2.261719 -0.144531 2.171875 -0.0976562 2.0625 -0.0585938 C 1.957031 -0.0195312 1.824219 0 1.664062 0 L 0.355469 0 C 0.25 0 0.171875 -0.0195312 0.125 -0.0625 C 0.0820312 -0.101562 0.0585938 -0.15625 0.0585938 -0.222656 C 0.0585938 -0.289062 0.0820312 -0.339844 0.128906 -0.382812 C 0.175781 -0.425781 0.25 -0.445312 0.355469 -0.445312 Z M 0.871094 -1.539062 L 1.359375 -1.539062 C 1.535156 -1.539062 1.679688 -1.582031 1.792969 -1.671875 C 1.871094 -1.730469 1.910156 -1.804688 1.910156 -1.890625 C 1.910156 -1.96875 1.875 -2.039062 1.800781 -2.097656 C 1.726562 -2.15625 1.609375 -2.183594 1.449219 -2.183594 L 0.871094 -2.183594 Z M 0.871094 -0.445312 L 1.636719 -0.445312 C 1.820312 -0.445312 1.945312 -0.472656 2.019531 -0.523438 C 2.078125 -0.566406 2.105469 -0.625 2.105469 -0.699219 C 2.105469 -0.789062 2.050781 -0.875 1.9375 -0.964844 C 1.828125 -1.050781 1.667969 -1.09375 1.457031 -1.09375 L 0.871094 -1.09375 Z "/>
</g>
</g>
</defs>
<g fill="rgb(94.117647%, 95.686275%, 97.254902%)" fill-opacity="1">
<use xlink:href="#glyph-0-0" x="30" y="23.700195"/>
</g>
</svg>
