<?xml version="1.0" encoding="UTF-8"?>
<svg xmlns="http://www.w3.org/2000/svg" xmlns:xlink="http://www.w3.org/1999/xlink" width="1920" height="1080" viewBox="0 0 1920 1080">
<defs>
<g>
<g id="glyph-0-0">
<path d="M 2.453125 -0.8125 L 2.453125 -0.21875 C 2.253906 -0.109375 2.082031 -0.0351562 1.941406 0.00390625 C 1.800781 0.0429688 1.648438 0.0664062 1.484375 0.0664062 C 1.257812 0.0664062 1.046875 0.03125 0.851562 -0.0351562 C 0.699219 -0.0898438 0.582031 -0.15625 0.492188 -0.234375 C 0.40625 -0.3125 0.324219 -0.429688 0.25 -0.585938 C 0.175781 -0.742188 0.140625 -0.917969 0.140625 -1.109375 L 0.140625 -1.429688 C 0.140625 -1.726562 0.230469 -1.992188 0.414062 -2.222656 C 0.65625 -2.539062 0.984375 -2.699219 1.402344 -2.699219 C 1.523438 -2.699219 1.640625 -2.683594 1.75 -2.660156 C 1.859375 -2.636719 1.964844 -2.597656 2.0625 -2.550781 C 2.121094 -2.605469 2.179688 -2.628906 2.234375 -2.628906 C 2.300781 -2.628906 2.351562 -2.609375 2.394531 -2.5625 C 2.433594 -2.519531 2.453125 -2.441406 2.453125 -2.335938 L 2.453125 -2.046875 C 2.453125 -1.941406 2.433594 -1.863281 2.390625 -1.816406 C 2.351562 -1.773438 2.296875 -1.75 2.234375 -1.75 C 2.179688 -1.75 2.136719 -1.765625 2.097656 -1.796875 C 2.070312 -1.820312 2.046875 -1.867188 2.027344 -1.941406 C 2.007812 -2.015625 1.984375 -2.066406 1.960938 -2.09375 C 1.921875 -2.132812 1.851562 -2.171875 1.753906 -2.203125 C 1.652344 -2.234375 1.542969 -2.253906 1.417969 -2.253906 C 1.242188 -2.253906 1.089844 -2.214844 0.960938 -2.144531 C 0.867188 -2.089844 0.78125 -1.996094 0.703125 -1.863281 C 0.625 -1.730469 0.585938 -1.585938 0.585938 -1.429688 L 0.585938 -1.109375 C 0.585938 -0.871094 0.65625 -0.6875 0.792969 -0.566406 C 0.929688 -0.441406 1.152344 -0.378906 1.453125 -0.378906 C 1.65625 -0.378906 1.839844 -0.417969 2.007812 -0.496094 L 2.007812 -0.8125 L 1.554688 -0.8125 C 1.449219 -0.8125 1.371094 -0.835938 1.328125 -0.875 C 1.28125 -0.917969 1.257812 -0.972656 1.257812 -1.039062 C 1.257812 -1.105469 1.28125 -1.15625 1.328125 -1.199219 C 1.371094 -1.242188 1.449219 -1.261719 1.554688 -1.261719 L 2.347656 -1.257812 C 2.453125 -1.257812 2.527344 -1.238281 2.574219 -1.199219 C 2.621094 -1.15625 2.644531 -1.105469 2.644531 -1.039062 C 2.644531 -0.984375 2.628906 -0.941406 2.597656 -0.902344 C 2.566406 -0.863281 2.519531 -0.832031 2.453125 -0.8125 Z "/>
</g>
</g>
</defs>
<g fill="rgb(94.117647%, 95.686275%, 97.254902%)" fill-opacity="1">
<use xlink:href="#glyph-0-0" x="30" y="23.700195"/>
</g>
</svg>
