<?xml version="1.0" encoding="UTF-8"?>
<svg xmlns="http://www.w3.org/2000/svg" xmlns:xlink="http://www.w3.org/1999/xlink" width="1920" height="1080" viewBox="0 0 1920 1080">
<defs>
<g>
<g id="glyph-0-0">
<path d="M 0.875 -1.097656 L 0.875 -0.445312 L 2.011719 -0.445312 L 2.011719 -0.6875 C 2.011719 -0.792969 2.03125 -0.867188 2.074219 -0.914062 C 2.113281 -0.960938 2.167969 -0.984375 2.234375 -0.984375 C 2.300781 -0.984375 2.351562 -0.960938 2.394531 -0.914062 C 2.4375 -0.867188 2.457031 -0.792969 2.457031 -0.6875 L 2.457031 0 L 0.363281 0 C 0.253906 0 0.179688 -0.0195312 0.132812 -0.0625 C 0.0859375 -0.101562 0.0664062 -0.15625 0.0664062 -0.222656 C 0.0664062 -0.289062 0.0898438 -0.339844 0.132812 -0.382812 C 0.179688 -0.425781 0.257812 -0.445312 0.363281 -0.445312 L 0.433594 -0.445312 L 0.433594 -2.183594 L 0.363281 -2.183594 C 0.253906 -2.183594 0.179688 -2.207031 0.132812 -2.246094 C 0.0859375 -2.289062 0.0664062 -2.34375 0.0664062 -2.410156 C 0.0664062 -2.476562 0.0859375 -2.527344 0.132812 -2.570312 C 0.179688 -2.613281 0.253906 -2.632812 0.363281 -2.632812 L 2.359375 -2.628906 L 2.359375 -1.953125 C 2.359375 -1.847656 2.339844 -1.773438 2.296875 -1.726562 C 2.257812 -1.679688 2.203125 -1.65625 2.136719 -1.65625 C 2.070312 -1.65625 2.015625 -1.679688 1.976562 -1.726562 C 1.933594 -1.769531 1.914062 -1.847656 1.914062 -1.953125 L 1.914062 -2.183594 L 0.875 -2.183594 L 0.875 -1.542969 L 1.265625 -1.542969 C 1.265625 -1.660156 1.277344 -1.734375 1.300781 -1.765625 C 1.34375 -1.835938 1.410156 -1.871094 1.492188 -1.871094 C 1.554688 -1.871094 1.609375 -1.851562 1.648438 -1.804688 C 1.691406 -1.757812 1.710938 -1.683594 1.710938 -1.574219 L 1.710938 -1.0625 C 1.710938 -0.964844 1.699219 -0.902344 1.675781 -0.867188 C 1.628906 -0.800781 1.570312 -0.765625 1.492188 -0.765625 C 1.410156 -0.765625 1.34375 -0.800781 1.300781 -0.871094 C 1.277344 -0.90625 1.265625 -0.980469 1.265625 -1.097656 Z "/>
</g>
</g>
</defs>
<g fill="rgb(94.117647%, 95.686275%, 97.254902%)" fill-opacity="1">
<use xlink:href="#glyph-0-0" x="30" y="23.700195"/>
</g>
</svg>
