<?xml version="1.0" encoding="UTF-8"?>
<svg xmlns="http://www.w3.org/2000/svg" xmlns:xlink="http://www.w3.org/1999/xlink" width="854" height="480" viewBox="0 0 854 480">
<defs>
<g>
<g id="glyph-0-0">
<path d="M 2.144531 -1.410156 C 2.132812 -1.296875 2.101562 -1.210938 2.046875 -1.160156 C 1.992188 -1.105469 1.921875 -1.078125 1.835938 -1.078125 C 1.746094 -1.078125 1.675781 -1.113281 1.617188 -1.175781 C 1.5625 -1.238281 1.535156 -1.339844 1.535156 -1.488281 L 1.535156 -1.832031 C 2.015625 -2.015625 2.308594 -2.160156 2.40625 -2.257812 C 2.507812 -2.359375 2.558594 -2.460938 2.558594 -2.5625 C 2.558594 -2.707031 2.5 -2.832031 2.382812 -2.9375 C 2.265625 -3.042969 2.101562 -3.097656 1.886719 -3.097656 C 1.664062 -3.097656 1.445312 -3.046875 1.238281 -2.941406 L 1.238281 -2.851562 C 1.238281 -2.707031 1.210938 -2.601562 1.152344 -2.539062 C 1.097656 -2.476562 1.023438 -2.445312 0.929688 -2.445312 C 0.839844 -2.445312 0.769531 -2.476562 0.710938 -2.539062 C 0.65625 -2.601562 0.625 -2.707031 0.625 -2.851562 L 0.625 -3.34375 C 0.9375 -3.492188 1.179688 -3.589844 1.355469 -3.636719 C 1.527344 -3.683594 1.707031 -3.707031 1.890625 -3.707031 C 2.277344 -3.707031 2.585938 -3.597656 2.820312 -3.375 C 3.050781 -3.152344 3.167969 -2.871094 3.167969 -2.535156 C 3.167969 -2.296875 3.097656 -2.09375 2.957031 -1.925781 C 2.816406 -1.761719 2.546875 -1.589844 2.144531 -1.410156 Z M 2.273438 -0.230469 C 2.273438 -0.136719 2.238281 -0.0585938 2.171875 0 C 2.105469 0.0585938 1.996094 0.0859375 1.839844 0.0859375 C 1.683594 0.0859375 1.574219 0.0585938 1.507812 0 C 1.441406 -0.0585938 1.410156 -0.136719 1.410156 -0.230469 C 1.410156 -0.324219 1.441406 -0.398438 1.507812 -0.457031 C 1.574219 -0.515625 1.683594 -0.546875 1.839844 -0.546875 C 1.996094 -0.546875 2.105469 -0.515625 2.171875 -0.457031 C 2.238281 -0.398438 2.273438 -0.324219 2.273438 -0.230469 Z "/>
</g>
</g>
</defs>
<g fill="rgb(94.117647%, 95.686275%, 97.254902%)" fill-opacity="1">
<use xlink:href="#glyph-0-0" x="30" y="25.086914"/>
</g>
</svg>
