<?xml version="1.0" encoding="UTF-8"?>
<svg xmlns="http://www.w3.org/2000/svg" xmlns:xlink="http://www.w3.org/1999/xlink" width="1920" height="1080" viewBox="0 0 1920 1080">
<defs>
<g>
<g id="glyph-0-0">
<path d="M 1.535156 -1.921875 L 1.535156 -0.777344 L 3.519531 -0.777344 L 3.519531 -1.199219 C 3.519531 -1.386719 3.554688 -1.519531 3.628906 -1.601562 C 3.699219 -1.679688 3.796875 -1.71875 3.910156 -1.71875 C 4.023438 -1.71875 4.117188 -1.679688 4.191406 -1.601562 C 4.261719 -1.519531 4.296875 -1.386719 4.296875 -1.199219 L 4.296875 0 L 0.632812 0 C 0.445312 0 0.3125 -0.0351562 0.234375 -0.109375 C 0.152344 -0.179688 0.113281 -0.273438 0.113281 -0.390625 C 0.113281 -0.503906 0.15625 -0.597656 0.234375 -0.671875 C 0.316406 -0.742188 0.449219 -0.777344 0.632812 -0.777344 L 0.753906 -0.777344 L 0.753906 -3.824219 L 0.632812 -3.824219 C 0.445312 -3.824219 0.3125 -3.859375 0.234375 -3.933594 C 0.152344 -4.003906 0.113281 -4.097656 0.113281 -4.214844 C 0.113281 -4.332031 0.152344 -4.425781 0.234375 -4.5 C 0.3125 -4.570312 0.445312 -4.605469 0.632812 -4.605469 L 4.128906 -4.601562 L 4.128906 -3.417969 C 4.128906 -3.234375 4.09375 -3.101562 4.023438 -3.019531 C 3.953125 -2.941406 3.855469 -2.902344 3.742188 -2.902344 C 3.625 -2.902344 3.53125 -2.941406 3.457031 -3.019531 C 3.386719 -3.097656 3.347656 -3.230469 3.347656 -3.417969 L 3.347656 -3.824219 L 1.535156 -3.824219 L 1.535156 -2.699219 L 2.21875 -2.699219 C 2.21875 -2.902344 2.238281 -3.03125 2.273438 -3.089844 C 2.351562 -3.214844 2.464844 -3.277344 2.609375 -3.277344 C 2.722656 -3.277344 2.816406 -3.238281 2.886719 -3.15625 C 2.960938 -3.078125 2.996094 -2.945312 2.996094 -2.757812 L 2.996094 -1.859375 C 2.996094 -1.691406 2.976562 -1.578125 2.933594 -1.519531 C 2.855469 -1.398438 2.746094 -1.339844 2.609375 -1.339844 C 2.464844 -1.339844 2.351562 -1.402344 2.273438 -1.527344 C 2.234375 -1.585938 2.21875 -1.714844 2.21875 -1.921875 Z "/>
</g>
</g>
</defs>
<g fill="rgb(94.117647%, 95.686275%, 97.254902%)" fill-opacity="1">
<use xlink:href="#glyph-0-0" x="30" y="26.474609"/>
</g>
</svg>
