<?xml version="1.0" encoding="UTF-8"?>
<svg xmlns="http://www.w3.org/2000/svg" xmlns:xlink="http://www.w3.org/1999/xlink" width="1920" height="1080" viewBox="0 0 1920 1080">
<defs>
<g>
<g id="glyph-0-0">
<path d="M 3.226562 -4.5625 L 3.226562 -1.734375 C 3.378906 -1.734375 3.492188 -1.703125 3.566406 -1.632812 C 3.640625 -1.566406 3.675781 -1.480469 3.675781 -1.375 C 3.675781 -1.269531 3.636719 -1.183594 3.5625 -1.113281 C 3.488281 -1.046875 3.378906 -1.011719 3.226562 -1.011719 L 3.226562 -0.722656 C 3.378906 -0.722656 3.492188 -0.6875 3.566406 -0.621094 C 3.640625 -0.550781 3.675781 -0.464844 3.675781 -0.359375 C 3.675781 -0.253906 3.636719 -0.167969 3.5625 -0.101562 C 3.488281 -0.0351562 3.367188 0 3.191406 0 L 2.222656 0 C 2.046875 0 1.921875 -0.0351562 1.851562 -0.101562 C 1.777344 -0.167969 1.738281 -0.253906 1.738281 -0.363281 C 1.738281 -0.46875 1.777344 -0.554688 1.851562 -0.621094 C 1.925781 -0.6875 2.046875 -0.722656 2.222656 -0.722656 L 2.503906 -0.722656 L 2.503906 -1.011719 L 0.539062 -1.011719 L 0.539062 -1.613281 L 2.269531 -4.5625 Z M 2.503906 -1.734375 L 2.503906 -3.511719 L 1.457031 -1.734375 Z "/>
</g>
<g id="glyph-0-1">
<path d="M 2.71875 -0.363281 C 2.71875 -0.226562 2.671875 -0.113281 2.574219 -0.0195312 C 2.476562 0.0703125 2.34375 0.117188 2.175781 0.117188 C 2.007812 0.117188 1.875 0.0703125 1.777344 -0.0195312 C 1.679688 -0.113281 1.632812 -0.226562 1.632812 -0.363281 C 1.632812 -0.5 1.679688 -0.613281 1.777344 -0.707031 C 1.875 -0.796875 2.007812 -0.84375 2.175781 -0.84375 C 2.34375 -0.84375 2.476562 -0.796875 2.574219 -0.707031 C 2.671875 -0.613281 2.71875 -0.5 2.71875 -0.363281 Z "/>
</g>
<g id="glyph-0-2">
<path d="M 3.199219 -2.414062 C 3.414062 -2.269531 3.574219 -2.101562 3.679688 -1.910156 C 3.785156 -1.71875 3.835938 -1.503906 3.835938 -1.265625 C 3.835938 -1.007812 3.765625 -0.773438 3.628906 -0.554688 C 3.488281 -0.335938 3.285156 -0.171875 3.019531 -0.0625 C 2.753906 0.0507812 2.40625 0.105469 1.976562 0.105469 C 1.414062 0.105469 0.996094 0.0195312 0.710938 -0.15625 C 0.554688 -0.253906 0.476562 -0.371094 0.476562 -0.507812 C 0.476562 -0.609375 0.511719 -0.699219 0.582031 -0.769531 C 0.648438 -0.84375 0.734375 -0.878906 0.832031 -0.878906 C 0.902344 -0.878906 0.972656 -0.855469 1.042969 -0.808594 C 1.148438 -0.738281 1.246094 -0.691406 1.335938 -0.667969 C 1.476562 -0.632812 1.671875 -0.617188 1.917969 -0.617188 C 2.339844 -0.617188 2.644531 -0.671875 2.832031 -0.78125 C 3.019531 -0.890625 3.113281 -1.046875 3.113281 -1.246094 C 3.113281 -1.394531 3.058594 -1.535156 2.949219 -1.671875 C 2.839844 -1.808594 2.695312 -1.917969 2.511719 -1.992188 C 2.40625 -2.035156 2.226562 -2.0625 1.976562 -2.082031 C 1.855469 -2.089844 1.761719 -2.125 1.699219 -2.191406 C 1.632812 -2.257812 1.601562 -2.339844 1.601562 -2.441406 C 1.601562 -2.542969 1.636719 -2.632812 1.707031 -2.703125 C 1.777344 -2.773438 1.867188 -2.808594 1.976562 -2.808594 C 2.214844 -2.808594 2.34375 -2.808594 2.359375 -2.8125 C 2.453125 -2.820312 2.546875 -2.851562 2.640625 -2.902344 C 2.734375 -2.953125 2.8125 -3.023438 2.867188 -3.117188 C 2.925781 -3.207031 2.957031 -3.300781 2.957031 -3.394531 C 2.957031 -3.546875 2.886719 -3.679688 2.753906 -3.792969 C 2.617188 -3.90625 2.414062 -3.960938 2.144531 -3.960938 C 1.796875 -3.960938 1.53125 -3.859375 1.347656 -3.65625 C 1.292969 -3.597656 1.25 -3.5625 1.214844 -3.542969 C 1.167969 -3.519531 1.113281 -3.503906 1.050781 -3.503906 C 0.953125 -3.503906 0.867188 -3.539062 0.796875 -3.609375 C 0.726562 -3.679688 0.691406 -3.769531 0.691406 -3.871094 C 0.691406 -4.035156 0.800781 -4.191406 1.015625 -4.34375 C 1.332031 -4.566406 1.722656 -4.679688 2.195312 -4.679688 C 2.644531 -4.679688 3.003906 -4.554688 3.273438 -4.300781 C 3.542969 -4.046875 3.679688 -3.738281 3.679688 -3.382812 C 3.679688 -3.195312 3.636719 -3.023438 3.558594 -2.863281 C 3.480469 -2.703125 3.359375 -2.550781 3.199219 -2.414062 Z "/>
</g>
<g id="glyph-0-3">
<rect x="0" y="0" width="0" height="0" mask="url(#mask-0)"/>
</g>
<g id="glyph-0-4">
<path d="M 2.707031 -1.664062 L 3.804688 -0.722656 C 3.9375 -0.714844 4.035156 -0.679688 4.101562 -0.613281 C 4.167969 -0.546875 4.199219 -0.460938 4.199219 -0.359375 C 4.199219 -0.253906 4.164062 -0.167969 4.089844 -0.101562 C 4.015625 -0.0351562 3.890625 0 3.71875 0 L 2.894531 0 C 2.722656 0 2.597656 -0.0351562 2.523438 -0.101562 C 2.449219 -0.167969 2.414062 -0.257812 2.414062 -0.367188 C 2.414062 -0.453125 2.4375 -0.527344 2.492188 -0.589844 C 2.542969 -0.65625 2.617188 -0.699219 2.707031 -0.722656 L 2.167969 -1.1875 L 1.617188 -0.722656 C 1.730469 -0.695312 1.808594 -0.652344 1.855469 -0.59375 C 1.90625 -0.535156 1.929688 -0.457031 1.929688 -0.367188 C 1.929688 -0.257812 1.894531 -0.167969 1.820312 -0.101562 C 1.746094 -0.0351562 1.625 0 1.449219 0 L 0.636719 0 C 0.460938 0 0.335938 -0.0351562 0.261719 -0.101562 C 0.1875 -0.167969 0.152344 -0.253906 0.152344 -0.363281 C 0.152344 -0.460938 0.183594 -0.542969 0.25 -0.613281 C 0.316406 -0.679688 0.414062 -0.714844 0.546875 -0.722656 L 1.617188 -1.667969 L 0.671875 -2.480469 C 0.546875 -2.488281 0.449219 -2.527344 0.386719 -2.59375 C 0.320312 -2.660156 0.289062 -2.742188 0.289062 -2.84375 C 0.289062 -2.949219 0.328125 -3.035156 0.398438 -3.101562 C 0.472656 -3.167969 0.597656 -3.203125 0.773438 -3.203125 L 1.449219 -3.203125 C 1.625 -3.203125 1.746094 -3.167969 1.820312 -3.101562 C 1.894531 -3.035156 1.933594 -2.949219 1.933594 -2.847656 C 1.933594 -2.707031 1.867188 -2.59375 1.734375 -2.507812 L 2.171875 -2.144531 L 2.601562 -2.515625 C 2.472656 -2.605469 2.410156 -2.710938 2.410156 -2.832031 C 2.410156 -2.945312 2.445312 -3.035156 2.519531 -3.101562 C 2.59375 -3.167969 2.71875 -3.203125 2.890625 -3.203125 L 3.5625 -3.203125 C 3.734375 -3.203125 3.859375 -3.167969 3.933594 -3.101562 C 4.007812 -3.035156 4.046875 -2.945312 4.046875 -2.839844 C 4.046875 -2.742188 4.011719 -2.660156 3.949219 -2.59375 C 3.882812 -2.527344 3.789062 -2.488281 3.660156 -2.480469 Z "/>
</g>
<g id="glyph-0-5">
<path d="M 2.535156 -4.679688 L 2.535156 -0.722656 L 3.265625 -0.722656 C 3.441406 -0.722656 3.5625 -0.691406 3.636719 -0.621094 C 3.710938 -0.554688 3.75 -0.46875 3.75 -0.359375 C 3.75 -0.253906 3.710938 -0.167969 3.636719 -0.101562 C 3.5625 -0.0351562 3.441406 0 3.265625 0 L 1.082031 0 C 0.910156 0 0.785156 -0.0351562 0.710938 -0.101562 C 0.636719 -0.167969 0.597656 -0.253906 0.597656 -0.363281 C 0.597656 -0.46875 0.636719 -0.554688 0.710938 -0.621094 C 0.785156 -0.6875 0.910156 -0.722656 1.082031 -0.722656 L 1.8125 -0.722656 L 1.8125 -3.738281 L 1.167969 -3.570312 C 1.0625 -3.542969 0.984375 -3.527344 0.933594 -3.527344 C 0.84375 -3.527344 0.761719 -3.5625 0.695312 -3.636719 C 0.628906 -3.710938 0.597656 -3.796875 0.597656 -3.902344 C 0.597656 -4 0.621094 -4.078125 0.671875 -4.132812 C 0.71875 -4.1875 0.824219 -4.234375 0.980469 -4.277344 Z "/>
</g>
<g id="glyph-0-6">
<path d="M 3.746094 -2.683594 L 3.746094 -1.890625 C 3.746094 -1.421875 3.609375 -0.96875 3.339844 -0.539062 C 3.066406 -0.109375 2.679688 0.105469 2.171875 0.105469 C 1.878906 0.105469 1.632812 0.0429688 1.433594 -0.0859375 C 1.234375 -0.214844 1.042969 -0.449219 0.863281 -0.796875 C 0.683594 -1.140625 0.59375 -1.503906 0.59375 -1.890625 L 0.59375 -2.683594 C 0.59375 -3.152344 0.726562 -3.601562 1 -4.03125 C 1.269531 -4.464844 1.65625 -4.679688 2.160156 -4.679688 C 2.449219 -4.679688 2.695312 -4.617188 2.898438 -4.488281 C 3.097656 -4.363281 3.289062 -4.125 3.472656 -3.78125 C 3.65625 -3.4375 3.746094 -3.070312 3.746094 -2.683594 Z M 3.019531 -2.683594 C 3.019531 -3.078125 2.910156 -3.417969 2.691406 -3.714844 C 2.566406 -3.875 2.390625 -3.957031 2.164062 -3.957031 C 1.945312 -3.957031 1.769531 -3.867188 1.628906 -3.6875 C 1.421875 -3.417969 1.316406 -3.082031 1.316406 -2.683594 L 1.316406 -1.890625 C 1.316406 -1.496094 1.425781 -1.152344 1.648438 -0.859375 C 1.769531 -0.699219 1.945312 -0.617188 2.171875 -0.617188 C 2.386719 -0.617188 2.566406 -0.707031 2.703125 -0.886719 C 2.914062 -1.15625 3.019531 -1.492188 3.019531 -1.890625 Z "/>
</g>
<g id="glyph-0-7">
<path d="M 2.160156 -3.636719 L 1.308594 -2.613281 C 1.230469 -2.519531 1.167969 -2.457031 1.121094 -2.429688 C 1.074219 -2.402344 1.019531 -2.386719 0.957031 -2.386719 C 0.855469 -2.386719 0.769531 -2.421875 0.695312 -2.496094 C 0.625 -2.566406 0.589844 -2.65625 0.589844 -2.757812 C 0.589844 -2.839844 0.640625 -2.945312 0.746094 -3.074219 L 2.160156 -4.777344 L 3.578125 -3.074219 C 3.648438 -2.992188 3.691406 -2.929688 3.710938 -2.886719 C 3.730469 -2.84375 3.742188 -2.800781 3.742188 -2.753906 C 3.742188 -2.652344 3.707031 -2.566406 3.632812 -2.496094 C 3.5625 -2.421875 3.476562 -2.386719 3.378906 -2.386719 C 3.3125 -2.386719 3.257812 -2.402344 3.210938 -2.429688 C 3.164062 -2.457031 3.101562 -2.519531 3.023438 -2.609375 Z "/>
</g>
<g id="glyph-0-8">
<path d="M 2.914062 -3.839844 L 1.257812 -3.839844 C 1.25 -3.699219 1.214844 -3.597656 1.148438 -3.535156 C 1.085938 -3.472656 1.003906 -3.441406 0.898438 -3.441406 C 0.789062 -3.441406 0.703125 -3.476562 0.636719 -3.550781 C 0.570312 -3.625 0.535156 -3.746094 0.535156 -3.921875 L 0.535156 -4.5625 L 3.675781 -4.5625 L 3.675781 -3.839844 L 2.503906 -0.355469 C 2.453125 -0.210938 2.398438 -0.113281 2.339844 -0.0664062 C 2.28125 -0.015625 2.207031 0.0078125 2.125 0.0078125 C 2.023438 0.0078125 1.9375 -0.0273438 1.863281 -0.0976562 C 1.792969 -0.167969 1.757812 -0.25 1.757812 -0.34375 C 1.757812 -0.394531 1.773438 -0.476562 1.8125 -0.589844 Z "/>
</g>
</g>
<image id="source-126" x="0" y="0" width="0" height="0"/>
<mask id="mask-0">
<use xlink:href="#source-126"/>
</mask>
</defs>
<g fill="rgb(94.117647%, 95.686275%, 97.254902%)" fill-opacity="1">
<use xlink:href="#glyph-0-0" x="30" y="26.012695"/>
<use xlink:href="#glyph-0-1" x="34" y="26.012695"/>
<use xlink:href="#glyph-0-2" x="38" y="26.012695"/>
<use xlink:href="#glyph-0-3" x="42" y="26.012695"/>
<use xlink:href="#glyph-0-4" x="46" y="26.012695"/>
<use xlink:href="#glyph-0-3" x="50" y="26.012695"/>
<use xlink:href="#glyph-0-5" x="54" y="26.012695"/>
<use xlink:href="#glyph-0-6" x="58" y="26.012695"/>
<use xlink:href="#glyph-0-7" x="62" y="26.012695"/>
<use xlink:href="#glyph-0-5" x="66" y="26.012695"/>
<use xlink:href="#glyph-0-8" x="70" y="26.012695"/>
</g>
</svg>
