<?xml version="1.0" encoding="UTF-8"?>
<svg xmlns="http://www.w3.org/2000/svg" xmlns:xlink="http://www.w3.org/1999/xlink" width="1920" height="1080" viewBox="0 0 1920 1080">
<defs>
<g>
<g id="glyph-0-0">
<path d="M 1.007812 -0.5 L 2.144531 -0.5 L 2.144531 -0.871094 C 2.144531 -0.992188 2.167969 -1.078125 2.214844 -1.128906 C 2.261719 -1.179688 2.320312 -1.207031 2.394531 -1.207031 C 2.46875 -1.207031 2.53125 -1.179688 2.578125 -1.128906 C 2.625 -1.078125 2.648438 -0.992188 2.648438 -0.871094 L 2.644531 0 L 0.367188 0 L 0.367188 -0.5 L 1.894531 -2.457031 L 0.972656 -2.457031 L 0.972656 -2.101562 C 0.972656 -1.980469 0.949219 -1.894531 0.902344 -1.84375 C 0.859375 -1.792969 0.796875 -1.765625 0.722656 -1.765625 C 0.648438 -1.765625 0.585938 -1.789062 0.539062 -1.84375 C 0.492188 -1.894531 0.472656 -1.980469 0.472656 -2.101562 L 0.472656 -2.960938 L 2.542969 -2.960938 L 2.542969 -2.46875 Z "/>
</g>
</g>
</defs>
<g fill="rgb(94.117647%, 95.686275%, 97.254902%)" fill-opacity="1">
<use xlink:href="#glyph-0-0" x="30" y="24.163086"/>
</g>
</svg>
