<?xml version="1.0" encoding="UTF-8"?>
<svg xmlns="http://www.w3.org/2000/svg" xmlns:xlink="http://www.w3.org/1999/xlink" width="1920" height="1080" viewBox="0 0 1920 1080">
<defs>
<g>
<g id="glyph-0-0">
<path d="M 2.90625 -1.480469 C 2.90625 -1.035156 2.765625 -0.664062 2.480469 -0.371094 C 2.199219 -0.0742188 1.871094 0.0742188 1.5 0.0742188 C 1.167969 0.0742188 0.867188 -0.0507812 0.597656 -0.296875 C 0.265625 -0.601562 0.101562 -0.996094 0.101562 -1.480469 C 0.101562 -1.964844 0.265625 -2.359375 0.597656 -2.664062 C 0.867188 -2.910156 1.167969 -3.035156 1.5 -3.035156 C 1.871094 -3.035156 2.199219 -2.886719 2.480469 -2.589844 C 2.765625 -2.296875 2.90625 -1.925781 2.90625 -1.480469 Z M 2.40625 -1.480469 C 2.40625 -1.785156 2.3125 -2.035156 2.128906 -2.234375 C 1.945312 -2.433594 1.734375 -2.535156 1.5 -2.535156 C 1.269531 -2.535156 1.058594 -2.433594 0.875 -2.234375 C 0.691406 -2.035156 0.601562 -1.78125 0.601562 -1.480469 C 0.601562 -1.175781 0.691406 -0.925781 0.875 -0.726562 C 1.058594 -0.527344 1.269531 -0.425781 1.5 -0.425781 C 1.734375 -0.425781 1.945312 -0.527344 2.128906 -0.726562 C 2.3125 -0.925781 2.40625 -1.175781 2.40625 -1.480469 Z "/>
</g>
</g>
</defs>
<g fill="rgb(94.117647%, 95.686275%, 97.254902%)" fill-opacity="1">
<use xlink:href="#glyph-0-0" x="30" y="24.163086"/>
</g>
</svg>
