<?xml version="1.0" encoding="UTF-8"?>
<svg xmlns="http://www.w3.org/2000/svg" xmlns:xlink="http://www.w3.org/1999/xlink" width="1920" height="1080" viewBox="0 0 1920 1080">
<defs>
<g>
<g id="glyph-0-0">
<path d="M 0.382812 -2.457031 L 1.867188 -2.601562 C 1.957031 -2.105469 2.136719 -1.738281 2.410156 -1.503906 C 2.683594 -1.269531 3.050781 -1.15625 3.515625 -1.15625 C 4.007812 -1.15625 4.375 -1.257812 4.625 -1.464844 C 4.875 -1.671875 5 -1.917969 5 -2.195312 C 5 -2.375 4.945312 -2.527344 4.84375 -2.652344 C 4.738281 -2.777344 4.554688 -2.886719 4.292969 -2.980469 C 4.113281 -3.042969 3.707031 -3.152344 3.070312 -3.308594 C 2.253906 -3.511719 1.679688 -3.761719 1.351562 -4.054688 C 0.886719 -4.472656 0.65625 -4.980469 0.65625 -5.578125 C 0.65625 -5.960938 0.761719 -6.320312 0.980469 -6.65625 C 1.199219 -6.992188 1.515625 -7.246094 1.925781 -7.421875 C 2.335938 -7.597656 2.832031 -7.683594 3.410156 -7.683594 C 4.359375 -7.683594 5.074219 -7.476562 5.554688 -7.0625 C 6.035156 -6.644531 6.285156 -6.089844 6.308594 -5.394531 L 4.78125 -5.328125 C 4.71875 -5.71875 4.578125 -5.996094 4.363281 -6.167969 C 4.148438 -6.335938 3.824219 -6.421875 3.398438 -6.421875 C 2.953125 -6.421875 2.605469 -6.332031 2.355469 -6.148438 C 2.195312 -6.03125 2.113281 -5.875 2.113281 -5.679688 C 2.113281 -5.5 2.1875 -5.347656 2.339844 -5.222656 C 2.53125 -5.058594 3 -4.890625 3.742188 -4.714844 C 4.484375 -4.539062 5.03125 -4.359375 5.386719 -4.171875 C 5.742188 -3.984375 6.023438 -3.730469 6.222656 -3.40625 C 6.425781 -3.082031 6.523438 -2.679688 6.523438 -2.199219 C 6.523438 -1.765625 6.40625 -1.363281 6.164062 -0.984375 C 5.921875 -0.605469 5.582031 -0.324219 5.144531 -0.140625 C 4.703125 0.0429688 4.15625 0.132812 3.5 0.132812 C 2.542969 0.132812 1.8125 -0.0859375 1.300781 -0.527344 C 0.789062 -0.96875 0.480469 -1.613281 0.382812 -2.457031 Z "/>
</g>
<g id="glyph-0-1">
<path d="M 1.777344 0 L 0.046875 -5.472656 L 1.453125 -5.472656 L 2.480469 -1.886719 L 3.421875 -5.472656 L 4.820312 -5.472656 L 5.730469 -1.886719 L 6.777344 -5.472656 L 8.207031 -5.472656 L 6.449219 0 L 5.054688 0 L 4.113281 -3.519531 L 3.183594 0 Z "/>
</g>
<g id="glyph-0-2">
<path d="M 1.839844 -3.804688 L 0.527344 -4.039062 C 0.675781 -4.570312 0.929688 -4.960938 1.289062 -5.214844 C 1.648438 -5.46875 2.183594 -5.597656 2.898438 -5.597656 C 3.542969 -5.597656 4.023438 -5.519531 4.339844 -5.367188 C 4.65625 -5.214844 4.878906 -5.019531 5.007812 -4.785156 C 5.136719 -4.550781 5.199219 -4.117188 5.199219 -3.488281 L 5.183594 -1.796875 C 5.183594 -1.316406 5.207031 -0.964844 5.253906 -0.734375 C 5.300781 -0.507812 5.386719 -0.261719 5.515625 0 L 4.082031 0 C 4.042969 -0.0976562 3.996094 -0.238281 3.941406 -0.429688 C 3.917969 -0.515625 3.902344 -0.570312 3.890625 -0.597656 C 3.644531 -0.355469 3.378906 -0.175781 3.097656 -0.0585938 C 2.816406 0.0625 2.515625 0.125 2.195312 0.125 C 1.632812 0.125 1.1875 -0.0273438 0.863281 -0.335938 C 0.539062 -0.640625 0.375 -1.027344 0.375 -1.496094 C 0.375 -1.804688 0.449219 -2.078125 0.597656 -2.320312 C 0.746094 -2.5625 0.953125 -2.75 1.21875 -2.878906 C 1.484375 -3.007812 1.871094 -3.121094 2.371094 -3.214844 C 3.046875 -3.34375 3.515625 -3.460938 3.777344 -3.570312 L 3.777344 -3.714844 C 3.777344 -3.992188 3.710938 -4.191406 3.570312 -4.3125 C 3.433594 -4.429688 3.175781 -4.488281 2.792969 -4.488281 C 2.535156 -4.488281 2.335938 -4.4375 2.191406 -4.335938 C 2.046875 -4.234375 1.929688 -4.058594 1.839844 -3.804688 Z M 3.777344 -2.628906 C 3.59375 -2.566406 3.296875 -2.492188 2.898438 -2.40625 C 2.496094 -2.320312 2.230469 -2.238281 2.109375 -2.15625 C 1.917969 -2.019531 1.824219 -1.851562 1.824219 -1.644531 C 1.824219 -1.441406 1.898438 -1.265625 2.050781 -1.117188 C 2.203125 -0.96875 2.394531 -0.898438 2.628906 -0.898438 C 2.890625 -0.898438 3.140625 -0.984375 3.375 -1.15625 C 3.550781 -1.285156 3.667969 -1.445312 3.722656 -1.632812 C 3.757812 -1.757812 3.777344 -1.992188 3.777344 -2.339844 Z "/>
</g>
<g id="glyph-0-3">
<path d="M 0.714844 -5.472656 L 2.066406 -5.472656 L 2.066406 -4.667969 C 2.242188 -4.945312 2.480469 -5.167969 2.777344 -5.339844 C 3.078125 -5.511719 3.410156 -5.597656 3.773438 -5.597656 C 4.410156 -5.597656 4.949219 -5.347656 5.390625 -4.851562 C 5.835938 -4.351562 6.054688 -3.65625 6.054688 -2.769531 C 6.054688 -1.855469 5.832031 -1.144531 5.386719 -0.636719 C 4.941406 -0.128906 4.398438 0.125 3.761719 0.125 C 3.460938 0.125 3.1875 0.0625 2.941406 -0.0585938 C 2.695312 -0.175781 2.4375 -0.382812 2.164062 -0.675781 L 2.164062 2.082031 L 0.714844 2.082031 Z M 2.148438 -2.828125 C 2.148438 -2.214844 2.269531 -1.761719 2.515625 -1.464844 C 2.757812 -1.171875 3.054688 -1.027344 3.40625 -1.027344 C 3.742188 -1.027344 4.023438 -1.160156 4.246094 -1.429688 C 4.46875 -1.699219 4.582031 -2.140625 4.582031 -2.757812 C 4.582031 -3.332031 4.46875 -3.757812 4.238281 -4.035156 C 4.007812 -4.3125 3.722656 -4.453125 3.382812 -4.453125 C 3.027344 -4.453125 2.734375 -4.316406 2.5 -4.042969 C 2.265625 -3.769531 2.148438 -3.367188 2.148438 -2.828125 Z "/>
</g>
<g id="glyph-0-4">
<rect x="0" y="0" width="0" height="0" mask="url(#mask-0)"/>
</g>
<g id="glyph-0-5">
<path d="M 0.746094 0 L 0.746094 -7.554688 L 3.03125 -7.554688 L 4.402344 -2.402344 L 5.757812 -7.554688 L 8.046875 -7.554688 L 8.046875 0 L 6.628906 0 L 6.628906 -5.949219 L 5.128906 0 L 3.660156 0 L 2.164062 -5.949219 L 2.164062 0 Z "/>
</g>
<g id="glyph-0-6">
<path d="M 4.359375 0 L 4.359375 -0.820312 C 4.160156 -0.527344 3.898438 -0.296875 3.574219 -0.128906 C 3.25 0.0390625 2.90625 0.125 2.546875 0.125 C 2.179688 0.125 1.847656 0.0429688 1.554688 -0.117188 C 1.265625 -0.28125 1.054688 -0.507812 0.921875 -0.800781 C 0.792969 -1.089844 0.726562 -1.496094 0.726562 -2.011719 L 0.726562 -5.472656 L 2.175781 -5.472656 L 2.175781 -2.957031 C 2.175781 -2.1875 2.203125 -1.71875 2.253906 -1.542969 C 2.308594 -1.371094 2.40625 -1.234375 2.546875 -1.132812 C 2.6875 -1.03125 2.867188 -0.980469 3.082031 -0.980469 C 3.328125 -0.980469 3.550781 -1.046875 3.746094 -1.183594 C 3.941406 -1.320312 4.078125 -1.488281 4.148438 -1.6875 C 4.222656 -1.890625 4.257812 -2.382812 4.257812 -3.164062 L 4.257812 -5.472656 L 5.707031 -5.472656 L 5.707031 0 Z "/>
</g>
<g id="glyph-0-7">
<path d="M 3.269531 -5.472656 L 3.269531 -4.320312 L 2.277344 -4.320312 L 2.277344 -2.113281 C 2.277344 -1.667969 2.289062 -1.40625 2.304688 -1.332031 C 2.324219 -1.257812 2.367188 -1.199219 2.433594 -1.148438 C 2.5 -1.101562 2.582031 -1.078125 2.679688 -1.078125 C 2.8125 -1.078125 3.007812 -1.125 3.261719 -1.214844 L 3.386719 -0.09375 C 3.050781 0.0507812 2.667969 0.125 2.242188 0.125 C 1.980469 0.125 1.746094 0.078125 1.535156 -0.0078125 C 1.324219 -0.09375 1.171875 -0.207031 1.074219 -0.347656 C 0.976562 -0.488281 0.910156 -0.675781 0.871094 -0.914062 C 0.839844 -1.082031 0.824219 -1.421875 0.824219 -1.933594 L 0.824219 -4.320312 L 0.160156 -4.320312 L 0.160156 -5.472656 L 0.824219 -5.472656 L 0.824219 -6.5625 L 2.277344 -7.40625 L 2.277344 -5.472656 Z "/>
</g>
<g id="glyph-0-8">
<path d="M 0.757812 -6.214844 L 0.757812 -7.554688 L 2.207031 -7.554688 L 2.207031 -6.214844 Z M 0.757812 0 L 0.757812 -5.472656 L 2.207031 -5.472656 L 2.207031 0 Z "/>
</g>
<g id="glyph-0-9">
<path d="M 0.421875 -2.8125 C 0.421875 -3.292969 0.542969 -3.761719 0.777344 -4.210938 C 1.015625 -4.660156 1.351562 -5.003906 1.785156 -5.242188 C 2.21875 -5.480469 2.707031 -5.597656 3.242188 -5.597656 C 4.070312 -5.597656 4.75 -5.328125 5.277344 -4.789062 C 5.808594 -4.253906 6.070312 -3.574219 6.070312 -2.753906 C 6.070312 -1.925781 5.804688 -1.238281 5.269531 -0.691406 C 4.734375 -0.148438 4.0625 0.125 3.253906 0.125 C 2.75 0.125 2.273438 0.0117188 1.816406 -0.214844 C 1.363281 -0.441406 1.015625 -0.777344 0.777344 -1.214844 C 0.539062 -1.652344 0.421875 -2.183594 0.421875 -2.8125 Z M 1.90625 -2.738281 C 1.90625 -2.195312 2.035156 -1.777344 2.292969 -1.488281 C 2.550781 -1.199219 2.867188 -1.054688 3.246094 -1.054688 C 3.625 -1.054688 3.941406 -1.199219 4.199219 -1.488281 C 4.453125 -1.777344 4.582031 -2.199219 4.582031 -2.746094 C 4.582031 -3.28125 4.453125 -3.695312 4.199219 -3.984375 C 3.941406 -4.273438 3.625 -4.417969 3.246094 -4.417969 C 2.867188 -4.417969 2.550781 -4.273438 2.292969 -3.984375 C 2.035156 -3.695312 1.90625 -3.28125 1.90625 -2.738281 Z "/>
</g>
<g id="glyph-0-10">
<path d="M 5.738281 0 L 4.289062 0 L 4.289062 -2.792969 C 4.289062 -3.382812 4.257812 -3.765625 4.195312 -3.941406 C 4.132812 -4.113281 4.03125 -4.25 3.894531 -4.34375 C 3.753906 -4.441406 3.585938 -4.488281 3.390625 -4.488281 C 3.140625 -4.488281 2.914062 -4.421875 2.714844 -4.28125 C 2.515625 -4.144531 2.378906 -3.964844 2.304688 -3.738281 C 2.230469 -3.511719 2.195312 -3.089844 2.195312 -2.480469 L 2.195312 0 L 0.746094 0 L 0.746094 -5.472656 L 2.09375 -5.472656 L 2.09375 -4.667969 C 2.570312 -5.289062 3.171875 -5.597656 3.898438 -5.597656 C 4.214844 -5.597656 4.507812 -5.539062 4.773438 -5.425781 C 5.039062 -5.308594 5.238281 -5.164062 5.375 -4.984375 C 5.507812 -4.804688 5.601562 -4.601562 5.65625 -4.375 C 5.710938 -4.148438 5.738281 -3.824219 5.738281 -3.402344 Z "/>
</g>
</g>
<image id="source-9" x="0" y="0" width="0" height="0"/>
<mask id="mask-0">
<use xlink:href="#source-9"/>
</mask>
</defs>
<g fill="rgb(94.117647%, 95.686275%, 97.254902%)" fill-opacity="1">
<use xlink:href="#glyph-0-0" x="30" y="29.555664"/>
<use xlink:href="#glyph-0-1" x="37" y="29.555664"/>
<use xlink:href="#glyph-0-2" x="45" y="29.555664"/>
<use xlink:href="#glyph-0-3" x="51" y="29.555664"/>
<use xlink:href="#glyph-0-4" x="57" y="29.555664"/>
<use xlink:href="#glyph-0-5" x="60" y="29.555664"/>
<use xlink:href="#glyph-0-6" x="69" y="29.555664"/>
<use xlink:href="#glyph-0-7" x="75" y="29.555664"/>
<use xlink:href="#glyph-0-2" x="79" y="29.555664"/>
<use xlink:href="#glyph-0-7" x="85" y="29.555664"/>
<use xlink:href="#glyph-0-8" x="89" y="29.555664"/>
<use xlink:href="#glyph-0-9" x="92" y="29.555664"/>
<use xlink:href="#glyph-0-10" x="98" y="29.555664"/>
</g>
</svg>
