<?xml version="1.0" encoding="UTF-8"?>
<svg xmlns="http://www.w3.org/2000/svg" xmlns:xlink="http://www.w3.org/1999/xlink" width="1920" height="1080" viewBox="0 0 1920 1080">
<defs>
<g>
<g id="glyph-0-0">
<path d="M 1.066406 -2.070312 L 1.066406 -0.136719 L 1.535156 -0.136719 C 1.570312 -0.136719 1.59375 -0.128906 1.605469 -0.117188 C 1.621094 -0.105469 1.628906 -0.0898438 1.628906 -0.0664062 C 1.628906 -0.046875 1.621094 -0.03125 1.605469 -0.0195312 C 1.59375 -0.0078125 1.570312 0 1.535156 0 L 0.460938 0 C 0.429688 0 0.40625 -0.0078125 0.390625 -0.0195312 C 0.378906 -0.03125 0.371094 -0.046875 0.371094 -0.0664062 C 0.371094 -0.0898438 0.378906 -0.105469 0.390625 -0.117188 C 0.40625 -0.128906 0.429688 -0.136719 0.460938 -0.136719 L 0.929688 -0.136719 L 0.929688 -1.882812 L 0.484375 -1.742188 C 0.464844 -1.734375 0.449219 -1.730469 0.4375 -1.730469 C 0.421875 -1.730469 0.40625 -1.738281 0.394531 -1.75 C 0.378906 -1.765625 0.371094 -1.78125 0.371094 -1.800781 C 0.371094 -1.816406 0.378906 -1.832031 0.390625 -1.84375 C 0.398438 -1.855469 0.414062 -1.863281 0.441406 -1.875 Z "/>
</g>
<g id="glyph-0-1">
<path d="M 0.625 -1.902344 L 0.625 -1.234375 C 0.703125 -1.269531 0.78125 -1.292969 0.855469 -1.3125 C 0.929688 -1.328125 1 -1.335938 1.0625 -1.335938 C 1.234375 -1.335938 1.378906 -1.277344 1.496094 -1.15625 C 1.609375 -1.035156 1.667969 -0.875 1.667969 -0.679688 C 1.667969 -0.464844 1.601562 -0.289062 1.472656 -0.152344 C 1.34375 -0.0195312 1.179688 0.046875 0.984375 0.046875 C 0.855469 0.046875 0.730469 0.0195312 0.613281 -0.0390625 C 0.527344 -0.078125 0.449219 -0.128906 0.378906 -0.1875 C 0.339844 -0.222656 0.320312 -0.253906 0.320312 -0.277344 C 0.320312 -0.296875 0.324219 -0.3125 0.339844 -0.328125 C 0.351562 -0.339844 0.367188 -0.347656 0.382812 -0.347656 C 0.402344 -0.347656 0.421875 -0.335938 0.441406 -0.316406 C 0.605469 -0.164062 0.785156 -0.0859375 0.976562 -0.0859375 C 1.136719 -0.0859375 1.269531 -0.140625 1.375 -0.25 C 1.476562 -0.359375 1.53125 -0.503906 1.53125 -0.6875 C 1.53125 -0.839844 1.484375 -0.964844 1.394531 -1.058594 C 1.304688 -1.152344 1.191406 -1.199219 1.050781 -1.199219 C 0.910156 -1.199219 0.765625 -1.160156 0.625 -1.085938 C 0.589844 -1.070312 0.566406 -1.0625 0.550781 -1.0625 C 0.53125 -1.0625 0.515625 -1.066406 0.503906 -1.082031 C 0.492188 -1.09375 0.488281 -1.113281 0.488281 -1.136719 L 0.488281 -2.042969 L 1.441406 -2.042969 C 1.472656 -2.042969 1.496094 -2.035156 1.511719 -2.023438 C 1.523438 -2.011719 1.53125 -1.992188 1.53125 -1.972656 C 1.53125 -1.953125 1.523438 -1.9375 1.511719 -1.921875 C 1.496094 -1.910156 1.472656 -1.902344 1.441406 -1.902344 Z "/>
</g>
</g>
</defs>
<g fill="rgb(39.215686%, 45.490196%, 54.509804%)" fill-opacity="1">
<use xlink:href="#glyph-0-0" x="30" y="22.774414"/>
<use xlink:href="#glyph-0-1" x="32" y="22.774414"/>
</g>
</svg>
