<?xml version="1.0" encoding="UTF-8"?>
<svg xmlns="http://www.w3.org/2000/svg" xmlns:xlink="http://www.w3.org/1999/xlink" width="1920" height="1080" viewBox="0 0 1920 1080">
<defs>
<g>
<g id="glyph-0-0">
<path d="M 2.535156 -4.679688 L 2.535156 -0.722656 L 3.265625 -0.722656 C 3.441406 -0.722656 3.5625 -0.691406 3.636719 -0.621094 C 3.710938 -0.554688 3.75 -0.46875 3.75 -0.359375 C 3.75 -0.253906 3.710938 -0.167969 3.636719 -0.101562 C 3.5625 -0.0351562 3.441406 0 3.265625 0 L 1.082031 0 C 0.910156 0 0.785156 -0.0351562 0.710938 -0.101562 C 0.636719 -0.167969 0.597656 -0.253906 0.597656 -0.363281 C 0.597656 -0.46875 0.636719 -0.554688 0.710938 -0.621094 C 0.785156 -0.6875 0.910156 -0.722656 1.082031 -0.722656 L 1.8125 -0.722656 L 1.8125 -3.738281 L 1.167969 -3.570312 C 1.0625 -3.542969 0.984375 -3.527344 0.933594 -3.527344 C 0.84375 -3.527344 0.761719 -3.5625 0.695312 -3.636719 C 0.628906 -3.710938 0.597656 -3.796875 0.597656 -3.902344 C 0.597656 -4 0.621094 -4.078125 0.671875 -4.132812 C 0.71875 -4.1875 0.824219 -4.234375 0.980469 -4.277344 Z "/>
</g>
<g id="glyph-0-1">
<path d="M 3.746094 -2.683594 L 3.746094 -1.890625 C 3.746094 -1.421875 3.609375 -0.96875 3.339844 -0.539062 C 3.066406 -0.109375 2.679688 0.105469 2.171875 0.105469 C 1.878906 0.105469 1.632812 0.0429688 1.433594 -0.0859375 C 1.234375 -0.214844 1.042969 -0.449219 0.863281 -0.796875 C 0.683594 -1.140625 0.59375 -1.503906 0.59375 -1.890625 L 0.59375 -2.683594 C 0.59375 -3.152344 0.726562 -3.601562 1 -4.03125 C 1.269531 -4.464844 1.65625 -4.679688 2.160156 -4.679688 C 2.449219 -4.679688 2.695312 -4.617188 2.898438 -4.488281 C 3.097656 -4.363281 3.289062 -4.125 3.472656 -3.78125 C 3.65625 -3.4375 3.746094 -3.070312 3.746094 -2.683594 Z M 3.019531 -2.683594 C 3.019531 -3.078125 2.910156 -3.417969 2.691406 -3.714844 C 2.566406 -3.875 2.390625 -3.957031 2.164062 -3.957031 C 1.945312 -3.957031 1.769531 -3.867188 1.628906 -3.6875 C 1.421875 -3.417969 1.316406 -3.082031 1.316406 -2.683594 L 1.316406 -1.890625 C 1.316406 -1.496094 1.425781 -1.152344 1.648438 -0.859375 C 1.769531 -0.699219 1.945312 -0.617188 2.171875 -0.617188 C 2.386719 -0.617188 2.566406 -0.707031 2.703125 -0.886719 C 2.914062 -1.15625 3.019531 -1.492188 3.019531 -1.890625 Z "/>
</g>
<g id="glyph-0-2">
<path d="M 2.160156 -3.636719 L 1.308594 -2.613281 C 1.230469 -2.519531 1.167969 -2.457031 1.121094 -2.429688 C 1.074219 -2.402344 1.019531 -2.386719 0.957031 -2.386719 C 0.855469 -2.386719 0.769531 -2.421875 0.695312 -2.496094 C 0.625 -2.566406 0.589844 -2.65625 0.589844 -2.757812 C 0.589844 -2.839844 0.640625 -2.945312 0.746094 -3.074219 L 2.160156 -4.777344 L 3.578125 -3.074219 C 3.648438 -2.992188 3.691406 -2.929688 3.710938 -2.886719 C 3.730469 -2.84375 3.742188 -2.800781 3.742188 -2.753906 C 3.742188 -2.652344 3.707031 -2.566406 3.632812 -2.496094 C 3.5625 -2.421875 3.476562 -2.386719 3.378906 -2.386719 C 3.3125 -2.386719 3.257812 -2.402344 3.210938 -2.429688 C 3.164062 -2.457031 3.101562 -2.519531 3.023438 -2.609375 Z "/>
</g>
<g id="glyph-0-3">
<path d="M 3.191406 -2.308594 C 3.378906 -2.167969 3.515625 -2.003906 3.609375 -1.820312 C 3.703125 -1.640625 3.75 -1.4375 3.75 -1.21875 C 3.75 -0.976562 3.691406 -0.753906 3.570312 -0.550781 C 3.453125 -0.347656 3.265625 -0.1875 3.011719 -0.0703125 C 2.757812 0.046875 2.476562 0.105469 2.164062 0.105469 C 1.855469 0.105469 1.574219 0.046875 1.324219 -0.0703125 C 1.078125 -0.1875 0.894531 -0.347656 0.773438 -0.554688 C 0.65625 -0.757812 0.597656 -0.980469 0.597656 -1.21875 C 0.597656 -1.4375 0.640625 -1.640625 0.734375 -1.820312 C 0.828125 -2.003906 0.96875 -2.167969 1.152344 -2.308594 C 0.992188 -2.460938 0.867188 -2.621094 0.785156 -2.789062 C 0.703125 -2.957031 0.664062 -3.136719 0.664062 -3.324219 C 0.664062 -3.695312 0.804688 -4.011719 1.085938 -4.28125 C 1.367188 -4.546875 1.730469 -4.679688 2.171875 -4.679688 C 2.613281 -4.679688 2.976562 -4.546875 3.257812 -4.28125 C 3.539062 -4.011719 3.683594 -3.695312 3.683594 -3.324219 C 3.683594 -3.132812 3.640625 -2.957031 3.558594 -2.785156 C 3.480469 -2.617188 3.355469 -2.457031 3.191406 -2.308594 Z M 2.941406 -3.3125 C 2.941406 -3.492188 2.871094 -3.640625 2.730469 -3.769531 C 2.589844 -3.894531 2.402344 -3.957031 2.164062 -3.957031 C 1.925781 -3.957031 1.734375 -3.894531 1.597656 -3.769531 C 1.457031 -3.644531 1.386719 -3.492188 1.386719 -3.3125 C 1.386719 -3.128906 1.457031 -2.976562 1.597656 -2.851562 C 1.734375 -2.726562 1.925781 -2.664062 2.164062 -2.664062 C 2.402344 -2.664062 2.589844 -2.726562 2.730469 -2.851562 C 2.871094 -2.976562 2.941406 -3.128906 2.941406 -3.3125 Z M 3.027344 -1.183594 C 3.027344 -1.375 2.945312 -1.546875 2.78125 -1.703125 C 2.617188 -1.855469 2.414062 -1.933594 2.171875 -1.933594 C 1.929688 -1.933594 1.726562 -1.855469 1.5625 -1.703125 C 1.398438 -1.546875 1.320312 -1.375 1.320312 -1.179688 C 1.320312 -1.027344 1.390625 -0.894531 1.53125 -0.785156 C 1.671875 -0.671875 1.886719 -0.617188 2.171875 -0.617188 C 2.460938 -0.617188 2.675781 -0.671875 2.816406 -0.785156 C 2.957031 -0.898438 3.027344 -1.03125 3.027344 -1.183594 Z "/>
</g>
</g>
</defs>
<g fill="rgb(94.117647%, 95.686275%, 97.254902%)" fill-opacity="1">
<use xlink:href="#glyph-0-0" x="30" y="26.012695"/>
<use xlink:href="#glyph-0-1" x="34" y="26.012695"/>
<use xlink:href="#glyph-0-2" x="38" y="26.012695"/>
<use xlink:href="#glyph-0-3" x="42" y="26.012695"/>
<use xlink:href="#glyph-0-1" x="46" y="26.012695"/>
</g>
</svg>
