<?xml version="1.0" encoding="UTF-8"?>
<svg xmlns="http://www.w3.org/2000/svg" xmlns:xlink="http://www.w3.org/1999/xlink" width="1920" height="1080" viewBox="0 0 1920 1080">
<defs>
<g>
<g id="glyph-0-0">
<path d="M 1.742188 -2.457031 L 1.742188 -0.5 L 2.078125 -0.5 C 2.199219 -0.5 2.285156 -0.476562 2.335938 -0.429688 C 2.386719 -0.382812 2.414062 -0.324219 2.414062 -0.25 C 2.414062 -0.175781 2.390625 -0.117188 2.335938 -0.0703125 C 2.285156 -0.0234375 2.199219 0 2.078125 0 L 0.90625 0 C 0.789062 0 0.703125 -0.0234375 0.652344 -0.0703125 C 0.601562 -0.117188 0.574219 -0.175781 0.574219 -0.25 C 0.574219 -0.324219 0.597656 -0.382812 0.652344 -0.429688 C 0.703125 -0.476562 0.789062 -0.5 0.90625 -0.5 L 1.242188 -0.5 L 1.242188 -2.457031 L 0.699219 -2.457031 L 0.699219 -1.984375 C 0.699219 -1.863281 0.675781 -1.777344 0.632812 -1.726562 C 0.585938 -1.675781 0.523438 -1.648438 0.449219 -1.648438 C 0.375 -1.648438 0.316406 -1.675781 0.269531 -1.726562 C 0.222656 -1.777344 0.199219 -1.863281 0.199219 -1.984375 L 0.199219 -2.960938 L 2.792969 -2.960938 L 2.792969 -1.984375 C 2.792969 -1.863281 2.769531 -1.777344 2.722656 -1.726562 C 2.675781 -1.675781 2.617188 -1.648438 2.542969 -1.648438 C 2.46875 -1.648438 2.410156 -1.675781 2.363281 -1.726562 C 2.316406 -1.777344 2.292969 -1.863281 2.292969 -1.984375 L 2.292969 -2.457031 Z "/>
</g>
</g>
</defs>
<g fill="rgb(94.117647%, 95.686275%, 97.254902%)" fill-opacity="1">
<use xlink:href="#glyph-0-0" x="30" y="24.163086"/>
</g>
</svg>
