<?xml version="1.0" encoding="UTF-8"?>
<svg xmlns="http://www.w3.org/2000/svg" xmlns:xlink="http://www.w3.org/1999/xlink" width="1920" height="1080" viewBox="0 0 1920 1080">
<defs>
<g>
<g id="glyph-0-0">
<path d="M 0.304688 0 L 0.304688 -2.984375 L 1.425781 -2.984375 C 1.652344 -2.984375 1.835938 -2.953125 1.972656 -2.890625 C 2.109375 -2.832031 2.21875 -2.738281 2.296875 -2.613281 C 2.375 -2.488281 2.414062 -2.355469 2.414062 -2.21875 C 2.414062 -2.09375 2.378906 -1.972656 2.308594 -1.859375 C 2.238281 -1.746094 2.136719 -1.65625 1.996094 -1.585938 C 2.175781 -1.535156 2.316406 -1.445312 2.410156 -1.316406 C 2.507812 -1.1875 2.558594 -1.039062 2.558594 -0.863281 C 2.558594 -0.722656 2.527344 -0.59375 2.46875 -0.476562 C 2.410156 -0.355469 2.335938 -0.261719 2.25 -0.199219 C 2.164062 -0.132812 2.054688 -0.0820312 1.921875 -0.0507812 C 1.792969 -0.015625 1.632812 0 1.441406 0 Z M 0.699219 -1.730469 L 1.34375 -1.730469 C 1.519531 -1.730469 1.644531 -1.742188 1.722656 -1.765625 C 1.820312 -1.792969 1.898438 -1.84375 1.949219 -1.914062 C 2 -1.980469 2.023438 -2.070312 2.023438 -2.171875 C 2.023438 -2.273438 2 -2.359375 1.953125 -2.433594 C 1.90625 -2.507812 1.839844 -2.5625 1.75 -2.589844 C 1.660156 -2.617188 1.511719 -2.628906 1.296875 -2.628906 L 0.699219 -2.628906 Z M 0.699219 -0.351562 L 1.441406 -0.351562 C 1.570312 -0.351562 1.660156 -0.355469 1.710938 -0.367188 C 1.800781 -0.382812 1.878906 -0.410156 1.9375 -0.449219 C 2 -0.484375 2.050781 -0.539062 2.089844 -0.613281 C 2.128906 -0.6875 2.148438 -0.769531 2.148438 -0.863281 C 2.148438 -0.976562 2.121094 -1.074219 2.0625 -1.15625 C 2.007812 -1.238281 1.925781 -1.292969 1.824219 -1.328125 C 1.722656 -1.359375 1.578125 -1.378906 1.390625 -1.378906 L 0.699219 -1.378906 Z "/>
</g>
<g id="glyph-0-1">
<path d="M 0.136719 -1.082031 C 0.136719 -1.480469 0.25 -1.777344 0.472656 -1.96875 C 0.65625 -2.128906 0.882812 -2.210938 1.152344 -2.210938 C 1.449219 -2.210938 1.691406 -2.113281 1.878906 -1.917969 C 2.066406 -1.722656 2.164062 -1.453125 2.164062 -1.109375 C 2.164062 -0.832031 2.121094 -0.613281 2.039062 -0.453125 C 1.953125 -0.292969 1.832031 -0.171875 1.671875 -0.0820312 C 1.511719 0.00390625 1.339844 0.0507812 1.152344 0.0507812 C 0.847656 0.0507812 0.605469 -0.046875 0.417969 -0.242188 C 0.230469 -0.4375 0.136719 -0.714844 0.136719 -1.082031 Z M 0.515625 -1.082031 C 0.515625 -0.804688 0.574219 -0.597656 0.695312 -0.457031 C 0.816406 -0.320312 0.96875 -0.253906 1.152344 -0.253906 C 1.332031 -0.253906 1.484375 -0.320312 1.605469 -0.460938 C 1.726562 -0.597656 1.785156 -0.808594 1.785156 -1.09375 C 1.785156 -1.359375 1.726562 -1.5625 1.605469 -1.699219 C 1.484375 -1.835938 1.332031 -1.90625 1.152344 -1.90625 C 0.96875 -1.90625 0.816406 -1.839844 0.695312 -1.699219 C 0.574219 -1.5625 0.515625 -1.355469 0.515625 -1.082031 Z "/>
</g>
<g id="glyph-0-2">
<path d="M 1.074219 -0.328125 L 1.128906 -0.00390625 C 1.023438 0.0195312 0.933594 0.0273438 0.851562 0.0273438 C 0.71875 0.0273438 0.613281 0.0078125 0.542969 -0.0351562 C 0.46875 -0.078125 0.417969 -0.132812 0.386719 -0.199219 C 0.355469 -0.269531 0.34375 -0.414062 0.34375 -0.632812 L 0.34375 -1.875 L 0.0742188 -1.875 L 0.0742188 -2.160156 L 0.34375 -2.160156 L 0.34375 -2.695312 L 0.707031 -2.914062 L 0.707031 -2.160156 L 1.074219 -2.160156 L 1.074219 -1.875 L 0.707031 -1.875 L 0.707031 -0.613281 C 0.707031 -0.507812 0.710938 -0.441406 0.726562 -0.410156 C 0.738281 -0.382812 0.757812 -0.359375 0.789062 -0.339844 C 0.816406 -0.320312 0.859375 -0.3125 0.914062 -0.3125 C 0.953125 -0.3125 1.007812 -0.316406 1.074219 -0.328125 Z "/>
</g>
<g id="glyph-0-3">
<rect x="0" y="0" width="0" height="0" mask="url(#mask-0)"/>
</g>
<g id="glyph-0-4">
<path d="M 0.269531 0 L 0.269531 -2.160156 L 0.601562 -2.160156 L 0.601562 -1.832031 C 0.683594 -1.984375 0.761719 -2.085938 0.832031 -2.136719 C 0.902344 -2.183594 0.984375 -2.210938 1.066406 -2.210938 C 1.191406 -2.210938 1.316406 -2.171875 1.445312 -2.089844 L 1.320312 -1.75 C 1.230469 -1.804688 1.140625 -1.832031 1.050781 -1.832031 C 0.96875 -1.832031 0.898438 -1.808594 0.835938 -1.757812 C 0.769531 -1.710938 0.726562 -1.644531 0.699219 -1.558594 C 0.65625 -1.429688 0.636719 -1.285156 0.636719 -1.132812 L 0.636719 0 Z "/>
</g>
<g id="glyph-0-5">
<path d="M 0.671875 0 L 0.0117188 -2.160156 L 0.390625 -2.160156 L 0.734375 -0.914062 L 0.863281 -0.449219 C 0.867188 -0.472656 0.90625 -0.621094 0.972656 -0.894531 L 1.320312 -2.160156 L 1.695312 -2.160156 L 2.019531 -0.90625 L 2.125 -0.496094 L 2.25 -0.910156 L 2.621094 -2.160156 L 2.976562 -2.160156 L 2.300781 0 L 1.921875 0 L 1.578125 -1.292969 L 1.492188 -1.664062 L 1.054688 0 Z "/>
</g>
<g id="glyph-0-6">
<path d="M 0.972656 0.875 C 0.773438 0.621094 0.601562 0.324219 0.460938 -0.0195312 C 0.320312 -0.359375 0.253906 -0.714844 0.253906 -1.082031 C 0.253906 -1.402344 0.304688 -1.710938 0.410156 -2.007812 C 0.53125 -2.351562 0.71875 -2.691406 0.972656 -3.035156 L 1.238281 -3.035156 C 1.074219 -2.753906 0.964844 -2.550781 0.910156 -2.429688 C 0.828125 -2.242188 0.765625 -2.046875 0.714844 -1.84375 C 0.65625 -1.589844 0.628906 -1.335938 0.628906 -1.078125 C 0.628906 -0.425781 0.832031 0.226562 1.238281 0.875 Z "/>
</g>
<g id="glyph-0-7">
<path d="M 0.277344 -2.5625 L 0.277344 -2.984375 L 0.644531 -2.984375 L 0.644531 -2.5625 Z M 0.277344 0 L 0.277344 -2.160156 L 0.644531 -2.160156 L 0.644531 0 Z "/>
</g>
<g id="glyph-0-8">
<path d="M 0.273438 0 L 0.273438 -2.160156 L 0.605469 -2.160156 L 0.605469 -1.855469 C 0.761719 -2.089844 0.992188 -2.210938 1.292969 -2.210938 C 1.421875 -2.210938 1.542969 -2.1875 1.652344 -2.140625 C 1.761719 -2.09375 1.84375 -2.03125 1.894531 -1.957031 C 1.949219 -1.878906 1.988281 -1.789062 2.011719 -1.683594 C 2.023438 -1.617188 2.03125 -1.5 2.03125 -1.328125 L 2.03125 0 L 1.664062 0 L 1.664062 -1.3125 C 1.664062 -1.464844 1.648438 -1.574219 1.621094 -1.648438 C 1.59375 -1.722656 1.542969 -1.78125 1.46875 -1.824219 C 1.398438 -1.871094 1.3125 -1.890625 1.214844 -1.890625 C 1.058594 -1.890625 0.925781 -1.84375 0.8125 -1.742188 C 0.699219 -1.644531 0.640625 -1.457031 0.640625 -1.179688 L 0.640625 0 Z "/>
</g>
<g id="glyph-0-9">
<path d="M 1.675781 0 L 1.675781 -0.273438 C 1.539062 -0.0585938 1.339844 0.0507812 1.074219 0.0507812 C 0.902344 0.0507812 0.742188 0 0.597656 -0.09375 C 0.453125 -0.1875 0.339844 -0.320312 0.261719 -0.492188 C 0.183594 -0.660156 0.140625 -0.855469 0.140625 -1.078125 C 0.140625 -1.292969 0.179688 -1.488281 0.25 -1.664062 C 0.320312 -1.839844 0.429688 -1.976562 0.574219 -2.070312 C 0.71875 -2.164062 0.878906 -2.210938 1.054688 -2.210938 C 1.1875 -2.210938 1.300781 -2.183594 1.402344 -2.128906 C 1.503906 -2.074219 1.589844 -2 1.652344 -1.914062 L 1.652344 -2.984375 L 2.015625 -2.984375 L 2.015625 0 Z M 0.519531 -1.078125 C 0.519531 -0.800781 0.578125 -0.59375 0.695312 -0.457031 C 0.8125 -0.320312 0.949219 -0.253906 1.105469 -0.253906 C 1.265625 -0.253906 1.402344 -0.316406 1.515625 -0.449219 C 1.628906 -0.578125 1.683594 -0.777344 1.683594 -1.046875 C 1.683594 -1.34375 1.625 -1.5625 1.511719 -1.699219 C 1.398438 -1.835938 1.257812 -1.90625 1.089844 -1.90625 C 0.925781 -1.90625 0.792969 -1.839844 0.683594 -1.707031 C 0.574219 -1.574219 0.519531 -1.363281 0.519531 -1.078125 Z "/>
</g>
<g id="glyph-0-10">
<path d="M 1.683594 -0.792969 L 2.042969 -0.746094 C 2.003906 -0.496094 1.90625 -0.300781 1.742188 -0.160156 C 1.582031 -0.0195312 1.382812 0.0507812 1.144531 0.0507812 C 0.847656 0.0507812 0.613281 -0.046875 0.433594 -0.242188 C 0.253906 -0.433594 0.164062 -0.710938 0.164062 -1.074219 C 0.164062 -1.304688 0.203125 -1.507812 0.277344 -1.683594 C 0.355469 -1.859375 0.472656 -1.992188 0.632812 -2.078125 C 0.789062 -2.164062 0.960938 -2.210938 1.148438 -2.210938 C 1.382812 -2.210938 1.574219 -2.148438 1.722656 -2.03125 C 1.871094 -1.914062 1.96875 -1.746094 2.011719 -1.527344 L 1.652344 -1.472656 C 1.621094 -1.617188 1.558594 -1.726562 1.472656 -1.796875 C 1.386719 -1.871094 1.285156 -1.910156 1.160156 -1.910156 C 0.976562 -1.910156 0.828125 -1.84375 0.710938 -1.710938 C 0.597656 -1.578125 0.539062 -1.367188 0.539062 -1.082031 C 0.539062 -0.792969 0.59375 -0.582031 0.707031 -0.449219 C 0.816406 -0.316406 0.960938 -0.253906 1.140625 -0.253906 C 1.285156 -0.253906 1.40625 -0.296875 1.5 -0.382812 C 1.597656 -0.472656 1.660156 -0.609375 1.683594 -0.792969 Z "/>
</g>
<g id="glyph-0-11">
<path d="M 1.753906 -0.695312 L 2.132812 -0.648438 C 2.074219 -0.429688 1.960938 -0.257812 1.800781 -0.132812 C 1.640625 -0.0117188 1.433594 0.0507812 1.183594 0.0507812 C 0.867188 0.0507812 0.617188 -0.046875 0.429688 -0.242188 C 0.246094 -0.4375 0.152344 -0.710938 0.152344 -1.0625 C 0.152344 -1.425781 0.246094 -1.707031 0.433594 -1.910156 C 0.621094 -2.109375 0.863281 -2.210938 1.160156 -2.210938 C 1.449219 -2.210938 1.6875 -2.109375 1.871094 -1.914062 C 2.054688 -1.71875 2.144531 -1.441406 2.144531 -1.085938 C 2.144531 -1.0625 2.144531 -1.03125 2.140625 -0.988281 L 0.53125 -0.988281 C 0.542969 -0.75 0.613281 -0.566406 0.734375 -0.441406 C 0.855469 -0.316406 1.003906 -0.253906 1.183594 -0.253906 C 1.316406 -0.253906 1.433594 -0.289062 1.527344 -0.359375 C 1.621094 -0.429688 1.699219 -0.542969 1.753906 -0.695312 Z M 0.550781 -1.289062 L 1.757812 -1.289062 C 1.742188 -1.46875 1.695312 -1.605469 1.621094 -1.695312 C 1.503906 -1.835938 1.351562 -1.910156 1.164062 -1.910156 C 0.996094 -1.910156 0.855469 -1.851562 0.742188 -1.738281 C 0.628906 -1.625 0.5625 -1.476562 0.550781 -1.289062 Z "/>
</g>
<g id="glyph-0-12">
<path d="M 0.128906 -0.644531 L 0.492188 -0.703125 C 0.511719 -0.558594 0.566406 -0.445312 0.660156 -0.367188 C 0.753906 -0.289062 0.882812 -0.253906 1.050781 -0.253906 C 1.21875 -0.253906 1.34375 -0.285156 1.425781 -0.355469 C 1.507812 -0.421875 1.546875 -0.503906 1.546875 -0.597656 C 1.546875 -0.679688 1.511719 -0.742188 1.4375 -0.792969 C 1.386719 -0.824219 1.261719 -0.867188 1.0625 -0.914062 C 0.796875 -0.984375 0.609375 -1.042969 0.503906 -1.089844 C 0.402344 -1.140625 0.324219 -1.210938 0.269531 -1.296875 C 0.214844 -1.382812 0.1875 -1.480469 0.1875 -1.585938 C 0.1875 -1.683594 0.210938 -1.773438 0.253906 -1.855469 C 0.300781 -1.9375 0.359375 -2.003906 0.433594 -2.058594 C 0.492188 -2.101562 0.570312 -2.136719 0.667969 -2.164062 C 0.765625 -2.195312 0.871094 -2.210938 0.984375 -2.210938 C 1.152344 -2.210938 1.304688 -2.183594 1.429688 -2.136719 C 1.558594 -2.085938 1.652344 -2.019531 1.714844 -1.9375 C 1.777344 -1.855469 1.816406 -1.742188 1.839844 -1.601562 L 1.484375 -1.554688 C 1.46875 -1.664062 1.417969 -1.753906 1.34375 -1.816406 C 1.265625 -1.878906 1.152344 -1.910156 1.011719 -1.910156 C 0.84375 -1.910156 0.722656 -1.878906 0.652344 -1.824219 C 0.578125 -1.769531 0.542969 -1.703125 0.542969 -1.628906 C 0.542969 -1.582031 0.558594 -1.539062 0.589844 -1.5 C 0.617188 -1.460938 0.664062 -1.429688 0.726562 -1.402344 C 0.765625 -1.390625 0.871094 -1.359375 1.050781 -1.308594 C 1.3125 -1.242188 1.492188 -1.183594 1.59375 -1.140625 C 1.695312 -1.097656 1.777344 -1.03125 1.835938 -0.949219 C 1.894531 -0.863281 1.921875 -0.757812 1.921875 -0.636719 C 1.921875 -0.511719 1.886719 -0.398438 1.816406 -0.289062 C 1.746094 -0.183594 1.640625 -0.0976562 1.507812 -0.0390625 C 1.375 0.0195312 1.222656 0.0507812 1.050781 0.0507812 C 0.769531 0.0507812 0.558594 -0.0078125 0.410156 -0.125 C 0.261719 -0.242188 0.167969 -0.414062 0.128906 -0.644531 Z "/>
</g>
<g id="glyph-0-13">
<path d="M 2.097656 -0.351562 L 2.097656 0 L 0.125 0 C 0.125 -0.0898438 0.136719 -0.171875 0.167969 -0.253906 C 0.21875 -0.386719 0.300781 -0.519531 0.410156 -0.652344 C 0.519531 -0.78125 0.679688 -0.933594 0.890625 -1.101562 C 1.214844 -1.367188 1.433594 -1.578125 1.546875 -1.734375 C 1.660156 -1.890625 1.71875 -2.035156 1.71875 -2.175781 C 1.71875 -2.320312 1.664062 -2.441406 1.5625 -2.542969 C 1.457031 -2.640625 1.324219 -2.691406 1.15625 -2.691406 C 0.980469 -2.691406 0.839844 -2.640625 0.734375 -2.53125 C 0.628906 -2.425781 0.574219 -2.28125 0.570312 -2.09375 L 0.195312 -2.132812 C 0.222656 -2.414062 0.316406 -2.628906 0.484375 -2.773438 C 0.652344 -2.921875 0.878906 -2.996094 1.164062 -2.996094 C 1.449219 -2.996094 1.675781 -2.914062 1.84375 -2.757812 C 2.011719 -2.597656 2.09375 -2.402344 2.09375 -2.167969 C 2.09375 -2.046875 2.070312 -1.929688 2.019531 -1.816406 C 1.972656 -1.699219 1.890625 -1.578125 1.777344 -1.449219 C 1.664062 -1.324219 1.476562 -1.148438 1.210938 -0.925781 C 0.992188 -0.742188 0.851562 -0.617188 0.789062 -0.550781 C 0.726562 -0.484375 0.675781 -0.417969 0.636719 -0.351562 Z "/>
</g>
<g id="glyph-0-14">
<path d="M 0.171875 -1.472656 C 0.171875 -1.824219 0.210938 -2.109375 0.28125 -2.324219 C 0.355469 -2.539062 0.460938 -2.703125 0.605469 -2.820312 C 0.75 -2.9375 0.929688 -2.996094 1.144531 -2.996094 C 1.304688 -2.996094 1.445312 -2.960938 1.566406 -2.898438 C 1.6875 -2.832031 1.789062 -2.742188 1.867188 -2.621094 C 1.945312 -2.5 2.007812 -2.351562 2.050781 -2.175781 C 2.09375 -2 2.117188 -1.765625 2.117188 -1.472656 C 2.117188 -1.121094 2.082031 -0.839844 2.011719 -0.625 C 1.9375 -0.410156 1.832031 -0.242188 1.6875 -0.125 C 1.542969 -0.0078125 1.363281 0.0507812 1.144531 0.0507812 C 0.859375 0.0507812 0.632812 -0.0507812 0.46875 -0.257812 C 0.273438 -0.507812 0.171875 -0.910156 0.171875 -1.472656 Z M 0.550781 -1.472656 C 0.550781 -0.980469 0.605469 -0.65625 0.722656 -0.492188 C 0.835938 -0.332031 0.976562 -0.25 1.144531 -0.25 C 1.3125 -0.25 1.457031 -0.332031 1.570312 -0.496094 C 1.683594 -0.65625 1.742188 -0.984375 1.742188 -1.472656 C 1.742188 -1.960938 1.683594 -2.289062 1.570312 -2.449219 C 1.457031 -2.609375 1.3125 -2.691406 1.140625 -2.691406 C 0.972656 -2.691406 0.839844 -2.621094 0.738281 -2.476562 C 0.613281 -2.296875 0.550781 -1.960938 0.550781 -1.472656 Z "/>
</g>
<g id="glyph-0-15">
<path d="M -0.0078125 -0.933594 L -0.0078125 -1.226562 L 2.308594 -1.226562 L 2.308594 -0.933594 Z "/>
</g>
<g id="glyph-0-16">
<path d="M 0.226562 -0.691406 L 0.578125 -0.722656 C 0.609375 -0.558594 0.667969 -0.4375 0.75 -0.363281 C 0.835938 -0.289062 0.941406 -0.25 1.074219 -0.25 C 1.1875 -0.25 1.285156 -0.277344 1.371094 -0.328125 C 1.457031 -0.378906 1.523438 -0.449219 1.578125 -0.535156 C 1.632812 -0.621094 1.679688 -0.738281 1.714844 -0.882812 C 1.75 -1.03125 1.769531 -1.179688 1.769531 -1.332031 C 1.769531 -1.347656 1.769531 -1.371094 1.769531 -1.402344 C 1.695312 -1.285156 1.59375 -1.191406 1.46875 -1.121094 C 1.339844 -1.046875 1.203125 -1.011719 1.054688 -1.011719 C 0.808594 -1.011719 0.601562 -1.101562 0.429688 -1.28125 C 0.257812 -1.460938 0.171875 -1.695312 0.171875 -1.988281 C 0.171875 -2.289062 0.261719 -2.535156 0.441406 -2.71875 C 0.621094 -2.902344 0.84375 -2.996094 1.109375 -2.996094 C 1.304688 -2.996094 1.480469 -2.941406 1.644531 -2.839844 C 1.804688 -2.734375 1.925781 -2.585938 2.007812 -2.390625 C 2.09375 -2.199219 2.132812 -1.917969 2.132812 -1.550781 C 2.132812 -1.171875 2.09375 -0.867188 2.011719 -0.640625 C 1.929688 -0.414062 1.804688 -0.246094 1.640625 -0.125 C 1.476562 -0.0078125 1.285156 0.0507812 1.066406 0.0507812 C 0.832031 0.0507812 0.640625 -0.015625 0.496094 -0.144531 C 0.347656 -0.273438 0.257812 -0.457031 0.226562 -0.691406 Z M 1.726562 -2.007812 C 1.726562 -2.21875 1.671875 -2.382812 1.558594 -2.507812 C 1.449219 -2.628906 1.3125 -2.691406 1.15625 -2.691406 C 0.992188 -2.691406 0.851562 -2.625 0.730469 -2.492188 C 0.609375 -2.359375 0.550781 -2.1875 0.550781 -1.976562 C 0.550781 -1.785156 0.605469 -1.632812 0.722656 -1.511719 C 0.835938 -1.394531 0.976562 -1.335938 1.144531 -1.335938 C 1.316406 -1.335938 1.453125 -1.394531 1.5625 -1.511719 C 1.671875 -1.632812 1.726562 -1.796875 1.726562 -2.007812 Z "/>
</g>
<g id="glyph-0-17">
<path d="M 0.515625 0.875 L 0.253906 0.875 C 0.660156 0.226562 0.859375 -0.425781 0.859375 -1.078125 C 0.859375 -1.332031 0.832031 -1.585938 0.773438 -1.835938 C 0.726562 -2.039062 0.664062 -2.234375 0.578125 -2.421875 C 0.527344 -2.542969 0.417969 -2.75 0.253906 -3.035156 L 0.515625 -3.035156 C 0.769531 -2.695312 0.957031 -2.351562 1.082031 -2.007812 C 1.183594 -1.710938 1.238281 -1.402344 1.238281 -1.082031 C 1.238281 -0.714844 1.167969 -0.359375 1.027344 -0.0195312 C 0.886719 0.324219 0.714844 0.621094 0.515625 0.875 Z "/>
</g>
</g>
<image id="source-8" x="0" y="0" width="0" height="0"/>
<mask id="mask-0">
<use xlink:href="#source-8"/>
</mask>
</defs>
<g fill="rgb(7.843137%, 72.156863%, 65.098039%)" fill-opacity="1">
<use xlink:href="#glyph-0-0" x="30" y="23.772461"/>
<use xlink:href="#glyph-0-1" x="33" y="23.772461"/>
<use xlink:href="#glyph-0-2" x="35" y="23.772461"/>
<use xlink:href="#glyph-0-3" x="36" y="23.772461"/>
<use xlink:href="#glyph-0-4" x="37" y="23.772461"/>
<use xlink:href="#glyph-0-1" x="38" y="23.772461"/>
<use xlink:href="#glyph-0-5" x="40" y="23.772461"/>
<use xlink:href="#glyph-0-3" x="43" y="23.772461"/>
<use xlink:href="#glyph-0-3" x="44" y="23.772461"/>
<use xlink:href="#glyph-0-3" x="45" y="23.772461"/>
<use xlink:href="#glyph-0-6" x="46" y="23.772461"/>
<use xlink:href="#glyph-0-7" x="47" y="23.772461"/>
<use xlink:href="#glyph-0-8" x="48" y="23.772461"/>
<use xlink:href="#glyph-0-9" x="50" y="23.772461"/>
<use xlink:href="#glyph-0-7" x="52" y="23.772461"/>
<use xlink:href="#glyph-0-10" x="53" y="23.772461"/>
<use xlink:href="#glyph-0-11" x="55" y="23.772461"/>
<use xlink:href="#glyph-0-12" x="57" y="23.772461"/>
<use xlink:href="#glyph-0-3" x="59" y="23.772461"/>
<use xlink:href="#glyph-0-13" x="60" y="23.772461"/>
<use xlink:href="#glyph-0-14" x="62" y="23.772461"/>
<use xlink:href="#glyph-0-15" x="64" y="23.772461"/>
<use xlink:href="#glyph-0-13" x="66" y="23.772461"/>
<use xlink:href="#glyph-0-16" x="68" y="23.772461"/>
<use xlink:href="#glyph-0-17" x="70" y="23.772461"/>
</g>
</svg>
