<?xml version="1.0" encoding="UTF-8"?>
<svg xmlns="http://www.w3.org/2000/svg" xmlns:xlink="http://www.w3.org/1999/xlink" width="1920" height="1080" viewBox="0 0 1920 1080">
<defs>
<g>
<g id="glyph-0-0">
<path d="M 2.03125 -2.515625 C 2.058594 -2.554688 2.089844 -2.582031 2.121094 -2.601562 C 2.152344 -2.621094 2.1875 -2.628906 2.226562 -2.628906 C 2.292969 -2.628906 2.34375 -2.609375 2.386719 -2.5625 C 2.425781 -2.519531 2.449219 -2.441406 2.449219 -2.335938 L 2.449219 -1.957031 C 2.449219 -1.851562 2.425781 -1.773438 2.386719 -1.726562 C 2.34375 -1.683594 2.292969 -1.660156 2.226562 -1.660156 C 2.167969 -1.660156 2.121094 -1.675781 2.082031 -1.710938 C 2.046875 -1.742188 2.019531 -1.804688 2.003906 -1.898438 C 1.992188 -1.957031 1.972656 -2.003906 1.941406 -2.039062 C 1.882812 -2.101562 1.800781 -2.15625 1.695312 -2.195312 C 1.589844 -2.234375 1.480469 -2.253906 1.375 -2.253906 C 1.242188 -2.253906 1.117188 -2.222656 1.007812 -2.164062 C 0.894531 -2.105469 0.796875 -2.015625 0.710938 -1.882812 C 0.625 -1.753906 0.582031 -1.597656 0.582031 -1.417969 L 0.582031 -1.128906 C 0.582031 -0.914062 0.660156 -0.738281 0.816406 -0.59375 C 0.972656 -0.449219 1.1875 -0.378906 1.464844 -0.378906 C 1.628906 -0.378906 1.769531 -0.402344 1.882812 -0.445312 C 1.949219 -0.472656 2.019531 -0.523438 2.097656 -0.601562 C 2.144531 -0.648438 2.179688 -0.675781 2.203125 -0.691406 C 2.230469 -0.703125 2.261719 -0.710938 2.292969 -0.710938 C 2.351562 -0.710938 2.40625 -0.6875 2.449219 -0.644531 C 2.496094 -0.601562 2.515625 -0.546875 2.515625 -0.484375 C 2.515625 -0.425781 2.488281 -0.359375 2.425781 -0.289062 C 2.335938 -0.1875 2.222656 -0.109375 2.085938 -0.0507812 C 1.898438 0.0273438 1.691406 0.0664062 1.46875 0.0664062 C 1.203125 0.0664062 0.964844 0.0117188 0.753906 -0.0976562 C 0.585938 -0.183594 0.4375 -0.320312 0.320312 -0.507812 C 0.199219 -0.695312 0.140625 -0.902344 0.140625 -1.121094 L 0.140625 -1.421875 C 0.140625 -1.65625 0.191406 -1.871094 0.300781 -2.070312 C 0.410156 -2.269531 0.558594 -2.425781 0.75 -2.535156 C 0.941406 -2.644531 1.140625 -2.699219 1.355469 -2.699219 C 1.484375 -2.699219 1.605469 -2.683594 1.71875 -2.652344 C 1.832031 -2.625 1.933594 -2.578125 2.03125 -2.515625 Z "/>
</g>
</g>
</defs>
<g fill="rgb(94.117647%, 95.686275%, 97.254902%)" fill-opacity="1">
<use xlink:href="#glyph-0-0" x="30" y="23.700195"/>
</g>
</svg>
