<?xml version="1.0" encoding="UTF-8"?>
<svg xmlns="http://www.w3.org/2000/svg" xmlns:xlink="http://www.w3.org/1999/xlink" width="1920" height="1080" viewBox="0 0 1920 1080">
<defs>
<g>
<g id="glyph-0-0">
<path d="M 2.582031 -1.316406 C 2.582031 -0.921875 2.457031 -0.589844 2.207031 -0.328125 C 1.957031 -0.0664062 1.664062 0.0664062 1.335938 0.0664062 C 1.039062 0.0664062 0.769531 -0.0429688 0.53125 -0.261719 C 0.238281 -0.53125 0.0898438 -0.882812 0.0898438 -1.316406 C 0.0898438 -1.746094 0.238281 -2.097656 0.53125 -2.371094 C 0.769531 -2.589844 1.039062 -2.699219 1.335938 -2.699219 C 1.664062 -2.699219 1.953125 -2.566406 2.207031 -2.304688 C 2.457031 -2.042969 2.582031 -1.710938 2.582031 -1.316406 Z M 2.136719 -1.316406 C 2.136719 -1.585938 2.054688 -1.808594 1.890625 -1.988281 C 1.726562 -2.164062 1.542969 -2.253906 1.335938 -2.253906 C 1.128906 -2.253906 0.941406 -2.164062 0.777344 -1.984375 C 0.613281 -1.808594 0.535156 -1.585938 0.535156 -1.316406 C 0.535156 -1.046875 0.617188 -0.824219 0.777344 -0.644531 C 0.941406 -0.46875 1.128906 -0.378906 1.335938 -0.378906 C 1.542969 -0.378906 1.730469 -0.46875 1.890625 -0.644531 C 2.054688 -0.820312 2.136719 -1.042969 2.136719 -1.316406 Z "/>
</g>
</g>
</defs>
<g fill="rgb(94.117647%, 95.686275%, 97.254902%)" fill-opacity="1">
<use xlink:href="#glyph-0-0" x="30" y="23.700195"/>
</g>
</svg>
