<?xml version="1.0" encoding="UTF-8"?>
<svg xmlns="http://www.w3.org/2000/svg" xmlns:xlink="http://www.w3.org/1999/xlink" width="1920" height="1080" viewBox="0 0 1920 1080">
<defs>
<g>
<g id="glyph-0-0">
<path d="M 4.519531 -2.300781 C 4.519531 -1.609375 4.300781 -1.035156 3.859375 -0.574219 C 3.421875 -0.117188 2.914062 0.113281 2.335938 0.113281 C 1.816406 0.113281 1.347656 -0.078125 0.929688 -0.460938 C 0.414062 -0.933594 0.15625 -1.546875 0.15625 -2.300781 C 0.15625 -3.054688 0.414062 -3.671875 0.929688 -4.148438 C 1.347656 -4.53125 1.816406 -4.71875 2.335938 -4.71875 C 2.914062 -4.71875 3.421875 -4.492188 3.859375 -4.03125 C 4.300781 -3.570312 4.519531 -2.996094 4.519531 -2.300781 Z M 3.742188 -2.300781 C 3.742188 -2.773438 3.597656 -3.167969 3.3125 -3.476562 C 3.027344 -3.785156 2.699219 -3.941406 2.335938 -3.941406 C 1.972656 -3.941406 1.648438 -3.785156 1.363281 -3.476562 C 1.078125 -3.164062 0.933594 -2.773438 0.933594 -2.300781 C 0.933594 -1.832031 1.078125 -1.441406 1.363281 -1.128906 C 1.648438 -0.820312 1.972656 -0.664062 2.335938 -0.664062 C 2.699219 -0.664062 3.023438 -0.820312 3.3125 -1.128906 C 3.597656 -1.4375 3.742188 -1.828125 3.742188 -2.300781 Z "/>
</g>
</g>
</defs>
<g fill="rgb(94.117647%, 95.686275%, 97.254902%)" fill-opacity="1">
<use xlink:href="#glyph-0-0" x="30" y="26.474609"/>
</g>
</svg>
