<?xml version="1.0" encoding="UTF-8"?>
<svg xmlns="http://www.w3.org/2000/svg" xmlns:xlink="http://www.w3.org/1999/xlink" width="1920" height="1080" viewBox="0 0 1920 1080">
<defs>
<g>
<g id="glyph-0-0">
<path d="M 2.46875 0 L 2.46875 -6.277344 L 0.226562 -6.277344 L 0.226562 -7.554688 L 6.230469 -7.554688 L 6.230469 -6.277344 L 3.996094 -6.277344 L 3.996094 0 Z "/>
</g>
<g id="glyph-0-1">
<path d="M 2.199219 -7.554688 L 2.199219 -4.777344 C 2.667969 -5.324219 3.226562 -5.597656 3.875 -5.597656 C 4.207031 -5.597656 4.511719 -5.535156 4.777344 -5.410156 C 5.046875 -5.289062 5.246094 -5.128906 5.382812 -4.9375 C 5.519531 -4.746094 5.613281 -4.53125 5.660156 -4.296875 C 5.710938 -4.0625 5.738281 -3.703125 5.738281 -3.210938 L 5.738281 0 L 4.289062 0 L 4.289062 -2.890625 C 4.289062 -3.464844 4.261719 -3.828125 4.207031 -3.984375 C 4.152344 -4.140625 4.054688 -4.261719 3.914062 -4.351562 C 3.773438 -4.441406 3.601562 -4.488281 3.390625 -4.488281 C 3.152344 -4.488281 2.9375 -4.429688 2.746094 -4.3125 C 2.558594 -4.195312 2.417969 -4.019531 2.332031 -3.785156 C 2.246094 -3.550781 2.199219 -3.203125 2.199219 -2.742188 L 2.199219 0 L 0.753906 0 L 0.753906 -7.554688 Z "/>
</g>
<g id="glyph-0-2">
<path d="M 3.925781 -1.742188 L 5.371094 -1.5 C 5.183594 -0.972656 4.890625 -0.566406 4.492188 -0.292969 C 4.089844 -0.015625 3.589844 0.125 2.988281 0.125 C 2.039062 0.125 1.332031 -0.1875 0.875 -0.808594 C 0.515625 -1.308594 0.335938 -1.9375 0.335938 -2.695312 C 0.335938 -3.601562 0.570312 -4.3125 1.046875 -4.828125 C 1.519531 -5.339844 2.121094 -5.597656 2.84375 -5.597656 C 3.660156 -5.597656 4.300781 -5.328125 4.773438 -4.789062 C 5.242188 -4.253906 5.46875 -3.429688 5.449219 -2.320312 L 1.820312 -2.320312 C 1.828125 -1.890625 1.945312 -1.554688 2.167969 -1.316406 C 2.394531 -1.078125 2.671875 -0.957031 3.003906 -0.957031 C 3.230469 -0.957031 3.421875 -1.019531 3.578125 -1.144531 C 3.730469 -1.269531 3.847656 -1.46875 3.925781 -1.742188 Z M 4.011719 -3.207031 C 4 -3.625 3.890625 -3.945312 3.683594 -4.160156 C 3.476562 -4.378906 3.226562 -4.488281 2.933594 -4.488281 C 2.617188 -4.488281 2.355469 -4.375 2.148438 -4.144531 C 1.941406 -3.914062 1.839844 -3.601562 1.84375 -3.207031 Z "/>
</g>
<g id="glyph-0-3">
<rect x="0" y="0" width="0" height="0" mask="url(#mask-0)"/>
</g>
<g id="glyph-0-4">
<path d="M 0.769531 0 L 0.769531 -7.554688 L 3.214844 -7.554688 C 4.144531 -7.554688 4.75 -7.519531 5.03125 -7.441406 C 5.464844 -7.328125 5.824219 -7.082031 6.117188 -6.703125 C 6.410156 -6.324219 6.554688 -5.832031 6.554688 -5.230469 C 6.554688 -4.765625 6.472656 -4.378906 6.304688 -4.0625 C 6.136719 -3.746094 5.921875 -3.496094 5.660156 -3.316406 C 5.402344 -3.136719 5.136719 -3.015625 4.871094 -2.957031 C 4.507812 -2.886719 3.980469 -2.851562 3.289062 -2.851562 L 2.292969 -2.851562 L 2.292969 0 Z M 2.292969 -6.277344 L 2.292969 -4.132812 L 3.128906 -4.132812 C 3.730469 -4.132812 4.132812 -4.171875 4.335938 -4.253906 C 4.539062 -4.332031 4.695312 -4.453125 4.8125 -4.625 C 4.925781 -4.792969 4.984375 -4.988281 4.984375 -5.210938 C 4.984375 -5.484375 4.902344 -5.710938 4.742188 -5.890625 C 4.582031 -6.070312 4.375 -6.179688 4.128906 -6.226562 C 3.945312 -6.261719 3.582031 -6.277344 3.03125 -6.277344 Z "/>
</g>
<g id="glyph-0-5">
<path d="M 2.144531 0 L 0.695312 0 L 0.695312 -5.472656 L 2.042969 -5.472656 L 2.042969 -4.695312 C 2.273438 -5.0625 2.476562 -5.304688 2.664062 -5.421875 C 2.847656 -5.539062 3.054688 -5.597656 3.289062 -5.597656 C 3.617188 -5.597656 3.9375 -5.507812 4.242188 -5.324219 L 3.792969 -4.0625 C 3.550781 -4.21875 3.324219 -4.296875 3.113281 -4.296875 C 2.910156 -4.296875 2.738281 -4.242188 2.597656 -4.132812 C 2.457031 -4.019531 2.347656 -3.816406 2.265625 -3.527344 C 2.183594 -3.234375 2.144531 -2.621094 2.144531 -1.691406 Z "/>
</g>
<g id="glyph-0-6">
<path d="M 0.421875 -2.8125 C 0.421875 -3.292969 0.542969 -3.761719 0.777344 -4.210938 C 1.015625 -4.660156 1.351562 -5.003906 1.785156 -5.242188 C 2.21875 -5.480469 2.707031 -5.597656 3.242188 -5.597656 C 4.070312 -5.597656 4.75 -5.328125 5.277344 -4.789062 C 5.808594 -4.253906 6.070312 -3.574219 6.070312 -2.753906 C 6.070312 -1.925781 5.804688 -1.238281 5.269531 -0.691406 C 4.734375 -0.148438 4.0625 0.125 3.253906 0.125 C 2.75 0.125 2.273438 0.0117188 1.816406 -0.214844 C 1.363281 -0.441406 1.015625 -0.777344 0.777344 -1.214844 C 0.539062 -1.652344 0.421875 -2.183594 0.421875 -2.8125 Z M 1.90625 -2.738281 C 1.90625 -2.195312 2.035156 -1.777344 2.292969 -1.488281 C 2.550781 -1.199219 2.867188 -1.054688 3.246094 -1.054688 C 3.625 -1.054688 3.941406 -1.199219 4.199219 -1.488281 C 4.453125 -1.777344 4.582031 -2.199219 4.582031 -2.746094 C 4.582031 -3.28125 4.453125 -3.695312 4.199219 -3.984375 C 3.941406 -4.273438 3.625 -4.417969 3.246094 -4.417969 C 2.867188 -4.417969 2.550781 -4.273438 2.292969 -3.984375 C 2.035156 -3.695312 1.90625 -3.28125 1.90625 -2.738281 Z "/>
</g>
<g id="glyph-0-7">
<path d="M 0.695312 0 L 0.695312 -7.554688 L 2.144531 -7.554688 L 2.144531 -4.835938 C 2.589844 -5.34375 3.121094 -5.597656 3.730469 -5.597656 C 4.398438 -5.597656 4.949219 -5.355469 5.386719 -4.875 C 5.824219 -4.390625 6.039062 -3.695312 6.039062 -2.792969 C 6.039062 -1.859375 5.816406 -1.140625 5.375 -0.632812 C 4.929688 -0.128906 4.386719 0.125 3.753906 0.125 C 3.441406 0.125 3.132812 0.046875 2.828125 -0.109375 C 2.523438 -0.265625 2.261719 -0.5 2.042969 -0.804688 L 2.042969 0 Z M 2.132812 -2.855469 C 2.132812 -2.289062 2.222656 -1.871094 2.402344 -1.597656 C 2.652344 -1.214844 2.984375 -1.019531 3.402344 -1.019531 C 3.722656 -1.019531 3.992188 -1.15625 4.21875 -1.429688 C 4.445312 -1.703125 4.554688 -2.132812 4.554688 -2.722656 C 4.554688 -3.347656 4.441406 -3.796875 4.214844 -4.074219 C 3.988281 -4.351562 3.699219 -4.488281 3.34375 -4.488281 C 2.996094 -4.488281 2.710938 -4.355469 2.480469 -4.085938 C 2.25 -3.816406 2.132812 -3.40625 2.132812 -2.855469 Z "/>
</g>
<g id="glyph-0-8">
<path d="M 0.757812 0 L 0.757812 -7.554688 L 2.207031 -7.554688 L 2.207031 0 Z "/>
</g>
<g id="glyph-0-9">
<path d="M 0.648438 -5.472656 L 1.984375 -5.472656 L 1.984375 -4.726562 C 2.460938 -5.308594 3.03125 -5.597656 3.691406 -5.597656 C 4.042969 -5.597656 4.34375 -5.523438 4.601562 -5.382812 C 4.859375 -5.238281 5.070312 -5.019531 5.238281 -4.726562 C 5.476562 -5.019531 5.738281 -5.238281 6.015625 -5.382812 C 6.292969 -5.527344 6.589844 -5.597656 6.90625 -5.597656 C 7.308594 -5.597656 7.648438 -5.515625 7.925781 -5.351562 C 8.203125 -5.1875 8.414062 -4.949219 8.550781 -4.632812 C 8.648438 -4.398438 8.699219 -4.023438 8.699219 -3.5 L 8.699219 0 L 7.25 0 L 7.25 -3.128906 C 7.25 -3.671875 7.203125 -4.023438 7.101562 -4.179688 C 6.96875 -4.386719 6.761719 -4.488281 6.484375 -4.488281 C 6.28125 -4.488281 6.089844 -4.425781 5.910156 -4.304688 C 5.734375 -4.179688 5.605469 -4 5.523438 -3.761719 C 5.445312 -3.523438 5.40625 -3.144531 5.40625 -2.628906 L 5.40625 0 L 3.957031 0 L 3.957031 -3 C 3.957031 -3.53125 3.933594 -3.875 3.882812 -4.03125 C 3.832031 -4.183594 3.75 -4.300781 3.640625 -4.375 C 3.53125 -4.449219 3.386719 -4.488281 3.199219 -4.488281 C 2.976562 -4.488281 2.777344 -4.429688 2.597656 -4.308594 C 2.417969 -4.1875 2.289062 -4.015625 2.214844 -3.789062 C 2.136719 -3.5625 2.097656 -3.183594 2.097656 -2.660156 L 2.097656 0 L 0.648438 0 Z "/>
</g>
<g id="glyph-0-10">
<path d="M 1.777344 0 L 0.046875 -5.472656 L 1.453125 -5.472656 L 2.480469 -1.886719 L 3.421875 -5.472656 L 4.820312 -5.472656 L 5.730469 -1.886719 L 6.777344 -5.472656 L 8.207031 -5.472656 L 6.449219 0 L 5.054688 0 L 4.113281 -3.519531 L 3.183594 0 Z "/>
</g>
<g id="glyph-0-11">
<path d="M 0.757812 -6.214844 L 0.757812 -7.554688 L 2.207031 -7.554688 L 2.207031 -6.214844 Z M 0.757812 0 L 0.757812 -5.472656 L 2.207031 -5.472656 L 2.207031 0 Z "/>
</g>
<g id="glyph-0-12">
<path d="M 3.269531 -5.472656 L 3.269531 -4.320312 L 2.277344 -4.320312 L 2.277344 -2.113281 C 2.277344 -1.667969 2.289062 -1.40625 2.304688 -1.332031 C 2.324219 -1.257812 2.367188 -1.199219 2.433594 -1.148438 C 2.5 -1.101562 2.582031 -1.078125 2.679688 -1.078125 C 2.8125 -1.078125 3.007812 -1.125 3.261719 -1.214844 L 3.386719 -0.09375 C 3.050781 0.0507812 2.667969 0.125 2.242188 0.125 C 1.980469 0.125 1.746094 0.078125 1.535156 -0.0078125 C 1.324219 -0.09375 1.171875 -0.207031 1.074219 -0.347656 C 0.976562 -0.488281 0.910156 -0.675781 0.871094 -0.914062 C 0.839844 -1.082031 0.824219 -1.421875 0.824219 -1.933594 L 0.824219 -4.320312 L 0.160156 -4.320312 L 0.160156 -5.472656 L 0.824219 -5.472656 L 0.824219 -6.5625 L 2.277344 -7.40625 L 2.277344 -5.472656 Z "/>
</g>
<g id="glyph-0-13">
<path d="M 6.851562 -0.957031 C 7.226562 -0.691406 7.632812 -0.476562 8.070312 -0.320312 L 7.507812 0.757812 C 7.277344 0.6875 7.054688 0.59375 6.835938 0.472656 C 6.785156 0.449219 6.449219 0.226562 5.820312 -0.195312 C 5.324219 0.0195312 4.777344 0.128906 4.175781 0.128906 C 3.015625 0.128906 2.105469 -0.214844 1.445312 -0.898438 C 0.789062 -1.582031 0.457031 -2.539062 0.457031 -3.777344 C 0.457031 -5.011719 0.789062 -5.972656 1.449219 -6.65625 C 2.109375 -7.34375 3.003906 -7.683594 4.132812 -7.683594 C 5.253906 -7.683594 6.140625 -7.34375 6.796875 -6.65625 C 7.453125 -5.972656 7.78125 -5.011719 7.78125 -3.777344 C 7.78125 -3.125 7.691406 -2.550781 7.507812 -2.054688 C 7.371094 -1.679688 7.152344 -1.3125 6.851562 -0.957031 Z M 5.625 -1.820312 C 5.820312 -2.050781 5.964844 -2.328125 6.0625 -2.65625 C 6.160156 -2.980469 6.210938 -3.355469 6.210938 -3.777344 C 6.210938 -4.652344 6.019531 -5.304688 5.632812 -5.734375 C 5.25 -6.164062 4.746094 -6.378906 4.125 -6.378906 C 3.5 -6.378906 2.996094 -6.164062 2.609375 -5.730469 C 2.222656 -5.296875 2.03125 -4.648438 2.03125 -3.777344 C 2.03125 -2.894531 2.222656 -2.234375 2.609375 -1.796875 C 2.996094 -1.359375 3.484375 -1.140625 4.078125 -1.140625 C 4.296875 -1.140625 4.503906 -1.175781 4.699219 -1.246094 C 4.390625 -1.449219 4.078125 -1.609375 3.757812 -1.722656 L 4.183594 -2.59375 C 4.6875 -2.421875 5.167969 -2.164062 5.625 -1.820312 Z "/>
</g>
<g id="glyph-0-14">
<path d="M 1.839844 0 L 0.0351562 -7.554688 L 1.597656 -7.554688 L 2.738281 -2.367188 L 4.117188 -7.554688 L 5.933594 -7.554688 L 7.257812 -2.277344 L 8.417969 -7.554688 L 9.953125 -7.554688 L 8.117188 0 L 6.5 0 L 4.996094 -5.648438 L 3.496094 0 Z "/>
</g>
<g id="glyph-0-15">
<path d="M 0.769531 0 L 0.769531 -7.554688 L 6.371094 -7.554688 L 6.371094 -6.277344 L 2.292969 -6.277344 L 2.292969 -4.601562 L 6.085938 -4.601562 L 6.085938 -3.328125 L 2.292969 -3.328125 L 2.292969 -1.273438 L 6.515625 -1.273438 L 6.515625 0 Z "/>
</g>
<g id="glyph-0-16">
<path d="M 0.773438 0 L 0.773438 -7.554688 L 3.984375 -7.554688 C 4.792969 -7.554688 5.378906 -7.488281 5.746094 -7.351562 C 6.109375 -7.214844 6.402344 -6.976562 6.625 -6.628906 C 6.84375 -6.28125 6.953125 -5.882812 6.953125 -5.4375 C 6.953125 -4.871094 6.785156 -4.402344 6.453125 -4.03125 C 6.121094 -3.664062 5.621094 -3.429688 4.957031 -3.335938 C 5.289062 -3.144531 5.558594 -2.929688 5.773438 -2.699219 C 5.988281 -2.46875 6.28125 -2.0625 6.644531 -1.472656 L 7.566406 0 L 5.742188 0 L 4.640625 -1.644531 C 4.246094 -2.230469 3.980469 -2.601562 3.835938 -2.753906 C 3.691406 -2.90625 3.539062 -3.011719 3.375 -3.070312 C 3.214844 -3.125 2.957031 -3.15625 2.609375 -3.15625 L 2.296875 -3.15625 L 2.296875 0 Z M 2.296875 -4.359375 L 3.425781 -4.359375 C 4.160156 -4.359375 4.617188 -4.390625 4.796875 -4.453125 C 4.980469 -4.515625 5.125 -4.621094 5.226562 -4.773438 C 5.328125 -4.925781 5.382812 -5.113281 5.382812 -5.339844 C 5.382812 -5.59375 5.3125 -5.800781 5.175781 -5.957031 C 5.042969 -6.113281 4.851562 -6.210938 4.601562 -6.253906 C 4.480469 -6.269531 4.109375 -6.277344 3.488281 -6.277344 L 2.296875 -6.277344 Z "/>
</g>
<g id="glyph-0-17">
<path d="M 2.753906 0 L 2.753906 -3.179688 L -0.015625 -7.554688 L 1.773438 -7.554688 L 3.550781 -4.566406 L 5.292969 -7.554688 L 7.050781 -7.554688 L 4.273438 -3.167969 L 4.273438 0 Z "/>
</g>
</g>
<image id="source-9" x="0" y="0" width="0" height="0"/>
<mask id="mask-0">
<use xlink:href="#source-9"/>
</mask>
</defs>
<g fill="rgb(94.117647%, 95.686275%, 97.254902%)" fill-opacity="1">
<use xlink:href="#glyph-0-0" x="30" y="29.555664"/>
<use xlink:href="#glyph-0-1" x="36" y="29.555664"/>
<use xlink:href="#glyph-0-2" x="42" y="29.555664"/>
<use xlink:href="#glyph-0-3" x="48" y="29.555664"/>
<use xlink:href="#glyph-0-4" x="51" y="29.555664"/>
<use xlink:href="#glyph-0-5" x="58" y="29.555664"/>
<use xlink:href="#glyph-0-6" x="62" y="29.555664"/>
<use xlink:href="#glyph-0-7" x="68" y="29.555664"/>
<use xlink:href="#glyph-0-8" x="74" y="29.555664"/>
<use xlink:href="#glyph-0-2" x="77" y="29.555664"/>
<use xlink:href="#glyph-0-9" x="83" y="29.555664"/>
<use xlink:href="#glyph-0-3" x="92" y="29.555664"/>
<use xlink:href="#glyph-0-10" x="95" y="29.555664"/>
<use xlink:href="#glyph-0-11" x="103" y="29.555664"/>
<use xlink:href="#glyph-0-12" x="106" y="29.555664"/>
<use xlink:href="#glyph-0-1" x="110" y="29.555664"/>
<use xlink:href="#glyph-0-3" x="116" y="29.555664"/>
<use xlink:href="#glyph-0-13" x="119" y="29.555664"/>
<use xlink:href="#glyph-0-14" x="127" y="29.555664"/>
<use xlink:href="#glyph-0-15" x="137" y="29.555664"/>
<use xlink:href="#glyph-0-16" x="144" y="29.555664"/>
<use xlink:href="#glyph-0-0" x="152" y="29.555664"/>
<use xlink:href="#glyph-0-17" x="158" y="29.555664"/>
</g>
</svg>
